<?xml version="1.0" encoding="utf-8"?>
<svg
	version="1.1"
	xmlns="http://www.w3.org/2000/svg"
	xmlns:xlink="http://www.w3.org/1999/xlink"
	x="0px" y="0px"
	width="200.0px" height="200.0px"
	viewBox="0 0 200.0 200.0"
	enable-background="new 0 0 200.0 200.0"
	xml:space="preserve">
	<path
		fill="#000000"
		stroke="#000000"
		fill-opacity="1.000"
		stroke-opacity="1.000"
		fill-rule="nonzero"
		stroke-width="0.0"
		stroke-linejoin="miter"
		stroke-linecap="square"
		d="M0.00,0.00L200.00,0.00L200.00,200.00L0.00,200.00z"/>
	<path
		fill="#8E8F94"
		stroke="#8E8F94"
		fill-opacity="1.000"
		stroke-opacity="1.000"
		fill-rule="nonzero"
		stroke-width="0.75802857"
		stroke-linejoin="miter"
		stroke-linecap="square"
		d="M88.09,120.67L180.22,120.78C180.23,85.01,163.20,59.44,133.06,47.35L88.09,47.35L88.09,120.67z"/>
	<path
		fill="#8E8F94"
		stroke="#FF00A5"
		fill-opacity="1.000"
		stroke-opacity="1.000"
		fill-rule="nonzero"
		stroke-width="0.0"
		stroke-linejoin="miter"
		stroke-linecap="square"
		d="M128.24,152.39C160.86,152.39,187.31,156.71,187.31,162.03C187.31,167.35,160.86,171.67,128.24,171.67C95.61,171.67,69.17,167.35,69.17,162.03C69.17,156.71,95.61,152.39,128.24,152.39z"/>
	<path
		fill="#737476"
		stroke="#737476"
		fill-opacity="1.000"
		stroke-opacity="1.000"
		fill-rule="nonzero"
		stroke-width="0.75802857"
		stroke-linejoin="miter"
		stroke-linecap="square"
		d="M88.09,88.49L109.81,88.49L109.81,120.65L88.09,120.65z"/>
	<path
		fill="#323338"
		stroke="#323338"
		fill-opacity="1.000"
		stroke-opacity="1.000"
		fill-rule="nonzero"
		stroke-width="1.263381"
		stroke-linejoin="miter"
		stroke-linecap="square"
		d="M94.44,91.89C104.80,109.22,134.35,104.57,134.16,82.51L134.35,49.06C134.35,45.30,129.94,35.22,119.55,33.96L94.29,33.72L94.44,91.89z"/>
	<path
		fill="#4F5052"
		stroke="#8A00FF"
		fill-opacity="1.000"
		stroke-opacity="1.000"
		fill-rule="nonzero"
		stroke-width="0.0"
		stroke-linejoin="miter"
		stroke-linecap="square"
		d="M105.07,120.27L132.10,120.27L132.10,153.91L105.07,153.91z"/>
	<path
		fill="#333439"
		stroke="#333439"
		fill-opacity="1.000"
		stroke-opacity="1.000"
		fill-rule="nonzero"
		stroke-width="0.75802857"
		stroke-linejoin="miter"
		stroke-linecap="square"
		d="M180.22,120.78C180.84,143.48,169.53,162.96,149.81,163.46L109.80,163.36C109.00,135.72,118.58,124.23,128.95,120.60L180.22,120.78z"/>
	<path
		fill="#333439"
		stroke="#333439"
		fill-opacity="1.000"
		stroke-opacity="1.000"
		fill-rule="nonzero"
		stroke-width="0.75802857"
		stroke-linejoin="miter"
		stroke-linecap="square"
		d="M109.19,163.36L91.37,163.18C82.49,162.03,76.70,143.48,88.06,133.78L88.09,122.80L88.09,120.70L109.80,120.63L109.19,163.36z"/>
	<path
		fill="#737476"
		stroke="#737476"
		fill-opacity="1.000"
		stroke-opacity="1.000"
		fill-rule="nonzero"
		stroke-width="1.263381"
		stroke-linejoin="miter"
		stroke-linecap="square"
		d="M94.43,102.73L94.20,33.72C63.98,31.54,56.38,45.64,56.81,55.51L56.68,84.33C55.96,95.06,39.37,97.47,35.61,83.53C33.17,74.41,39.39,68.44,46.22,67.57C43.57,59.25,35.96,54.12,28.71,51.83C15.09,64.82,10.02,87.05,18.84,101.28C30.37,120.34,61.95,133.78,83.58,102.79L94.43,102.73z"/>
	<path
		fill="#000000"
		stroke="#000000"
		fill-opacity="1.000"
		stroke-opacity="1.000"
		fill-rule="nonzero"
		stroke-width="0.21039037"
		stroke-linejoin="miter"
		stroke-linecap="square"
		d="M79.64,68.67C81.33,68.67,82.71,70.04,82.71,71.74C82.71,73.44,81.33,74.82,79.64,74.82C77.94,74.82,76.56,73.44,76.56,71.74C76.56,70.04,77.94,68.67,79.64,68.67z"/> 

	<text 
		font-size="0.27408594"
		font-family="default"
		fill="#363636"
		stroke-width="0"
		fill-opacity="1.000"
		text-anchor="start"
  		transform="rotate(-0.0 105.50925 121.62888) scale(1.3772912 1.0)" >

		<tspan x="74.89635" y="121.732376">I don't know why I made this</tspan>
	</text>
</svg>