<?xml version="1.0" encoding="utf-8"?>
<svg
	version="1.1"
	xmlns="http://www.w3.org/2000/svg"
	xmlns:xlink="http://www.w3.org/1999/xlink"
	x="0px" y="0px"
	width="200.0px" height="200.0px"
	viewBox="0 0 200.0 200.0"
	enable-background="new 0 0 200.0 200.0"
	xml:space="preserve">
	<path
		fill="#FF8F16"
		stroke="#000000"
		fill-opacity="1.000"
		stroke-opacity="1.000"
		fill-rule="nonzero"
		stroke-width="0.0"
		stroke-linejoin="miter"
		stroke-linecap="square"
		d="M0.00,0.00L200.00,0.00L200.00,200.00L0.00,200.00z"/>
	<path
		fill="#FDD734"
		stroke="#FDD734"
		fill-opacity="1.000"
		stroke-opacity="1.000"
		fill-rule="nonzero"
		stroke-width="2.0"
		stroke-linejoin="miter"
		stroke-linecap="square"
		d="M124.42,59.94C127.32,67.36,130.92,70.25,140.04,70.70L177.68,73.37C196.65,74.99,196.65,82.55,184.70,92.12L153.74,117.78C147.69,122.76,147.60,127.97,149.47,133.68L158.89,173.35C162.66,191.58,153.98,191.80,141.31,182.95L108.44,164.23C101.95,159.16,96.04,160.67,91.09,163.88L59.91,182.59C43.06,195.13,37.67,188.53,42.25,170.80L51.06,132.54C53.08,125.04,50.06,120.94,45.68,117.05L16.56,92.36C2.58,80.65,5.72,74.33,23.71,73.26L61.66,70.14C69.50,70.09,72.86,66.10,74.60,60.39L89.84,23.15C96.19,5.65,105.84,9.43,110.66,24.26L124.42,59.94z"/>
	<path
		fill="#FFFF8D"
		stroke="#FFFF8D"
		fill-opacity="1.000"
		stroke-opacity="1.000"
		fill-rule="nonzero"
		stroke-width="2.0532892"
		stroke-linejoin="miter"
		stroke-linecap="square"
		d="M119.10,58.75C124.23,75.44,104.40,77.69,102.82,63.05L100.38,22.97C100.42,20.55,103.57,20.21,104.44,22.22L119.10,58.75z"/>
	<path
		fill="#F5B300"
		stroke="#F5B300"
		fill-opacity="1.000"
		stroke-opacity="1.000"
		fill-rule="nonzero"
		stroke-width="2.0532892"
		stroke-linejoin="miter"
		stroke-linecap="square"
		d="M149.10,110.74C134.79,120.74,126.57,102.56,140.01,96.56L177.41,81.94C179.73,81.24,181.02,84.13,179.37,85.57L149.10,110.74z"/>
</svg>