<?xml version="1.0" encoding="utf-8"?>
<svg
	version="1.1"
	xmlns="http://www.w3.org/2000/svg"
	xmlns:xlink="http://www.w3.org/1999/xlink"
	x="0px" y="0px"
	width="480.0px" height="480.0px"
	viewBox="0 0 480.0 480.0"
	enable-background="new 0 0 480.0 480.0"
	xml:space="preserve">
	<path
		fill="#5C92FF"
		stroke="#5992FF"
		fill-opacity="0.996"
		stroke-opacity="1.000"
		fill-rule="nonzero"
		stroke-width="1.92873"
		stroke-linejoin="miter"
		stroke-linecap="square"
		d="M306.95,201.62C326.34,200.18,326.34,193.31,326.34,189.11L326.34,183.38L338.25,183.38Q344.51,183.74,344.32,176.72L344.32,171.95L346.65,171.95C352.44,172.27,352.22,169.52,352.41,165.11L352.41,142.73C352.41,138.26,354.54,120.00,338.04,112.51L338.02,112.49Q319.02,102.04,286.94,91.35L294.03,78.06C295.70,73.52,294.45,69.49,288.46,69.49L239.41,68.96C212.00,69.49,177.76,114.26,173.97,179.33C192.51,183.88,219.47,174.53,254.25,194.06C271.43,200.18,291.13,203.47,306.95,201.62z"/>
	<path
		fill="#FFFFFF"
		stroke="#E8E8E8"
		fill-opacity="0.996"
		stroke-opacity="1.000"
		fill-rule="nonzero"
		stroke-width="0.0"
		stroke-linejoin="miter"
		stroke-linecap="square"
		d="M251.45,86.98C256.27,87.32,266.14,86.11,267.93,85.20C269.73,90.59,266.01,94.30,260.40,94.76C254.60,95.18,251.84,90.35,251.45,86.98z"/>
	<path
		fill="#000000"
		stroke="#000000"
		fill-opacity="0.996"
		stroke-opacity="1.000"
		fill-rule="nonzero"
		stroke-width="0.4821825"
		stroke-linejoin="miter"
		stroke-linecap="square"
		d="M255.70,84.98C257.62,84.98,259.18,86.54,259.18,88.46C259.18,90.38,257.62,91.94,255.70,91.94C253.78,91.94,252.22,90.38,252.22,88.46C252.22,86.54,253.78,84.98,255.70,84.98z"/>
	<path
		fill="#6FC8FF"
		stroke="#49BAFF"
		fill-opacity="1.000"
		stroke-opacity="1.000"
		fill-rule="nonzero"
		stroke-width="0.0"
		stroke-linejoin="miter"
		stroke-linecap="square"
		d="M267.32,85.70C263.75,86.46,256.37,87.33,252.42,87.05Q250.03,87.02,250.80,85.76C256.97,78.22,266.98,76.81,268.95,82.53Q269.96,85.27,267.32,85.70z"/>
	<path
		fill="#2A2526"
		stroke="#2A2526"
		fill-opacity="1.000"
		stroke-opacity="1.000"
		fill-rule="nonzero"
		stroke-width="0.4821825"
		stroke-linejoin="miter"
		stroke-linecap="square"
		d="M299.97,130.40C301.32,120.24,310.00,120.79,311.22,129.51C309.65,137.83,299.17,138.88,299.97,130.40z"/>
	<path
		fill="#5C92FF"
		stroke="#0043BC"
		fill-opacity="0.996"
		stroke-opacity="1.000"
		fill-rule="nonzero"
		stroke-width="1.92873"
		stroke-linejoin="miter"
		stroke-linecap="square"
		d="M294.36,173.35C311.39,173.58,329.25,169.94,344.71,172.42"/>
	<path
		fill="#FFFFFF"
		stroke="#FFFFFF"
		fill-opacity="0.996"
		stroke-opacity="1.000"
		fill-rule="nonzero"
		stroke-width="0.60562915"
		stroke-linejoin="miter"
		stroke-linecap="square"
		d="M307.57,174.16Q305.92,184.00,302.09,174.43Q304.81,173.91,307.57,174.16z"/>
	<path
		fill="#FFFFFF"
		stroke="#FFFFFF"
		fill-opacity="0.996"
		stroke-opacity="1.000"
		fill-rule="nonzero"
		stroke-width="0.588036"
		stroke-linejoin="miter"
		stroke-linecap="square"
		d="M293.34,84.97C289.57,95.98,281.11,91.21,281.85,85.76C285.34,85.15,290.24,85.04,293.34,84.97z"/>
	<path
		fill="#000000"
		stroke="#FFFFFF"
		fill-opacity="0.996"
		stroke-opacity="1.000"
		fill-rule="nonzero"
		stroke-width="0.0"
		stroke-linejoin="miter"
		stroke-linecap="square"
		d="M284.47,83.80C286.10,83.80,287.41,85.11,287.41,86.74C287.41,88.36,286.10,89.68,284.47,89.68C282.85,89.68,281.53,88.36,281.53,86.74C281.53,85.11,282.85,83.80,284.47,83.80z"/>
	<path
		fill="#6FC8FF"
		stroke="#6FC8FF"
		fill-opacity="1.000"
		stroke-opacity="1.000"
		fill-rule="nonzero"
		stroke-width="0.4821825"
		stroke-linejoin="miter"
		stroke-linecap="square"
		d="M281.85,85.32C282.73,76.90,292.08,78.69,294.69,78.69C295.93,88.30,291.75,82.96,281.85,85.32z"/>
	<path
		fill="#FFFFFF"
		stroke="#FFFFFF"
		fill-opacity="0.996"
		stroke-opacity="1.000"
		fill-rule="nonzero"
		stroke-width="0.588036"
		stroke-linejoin="miter"
		stroke-linecap="square"
		d="M336.21,172.87Q337.69,182.63,341.45,173.25Q338.42,172.92,336.21,172.87z"/>
	<path
		fill="#FFFFFF"
		stroke="#FFFFFF"
		fill-opacity="0.996"
		stroke-opacity="1.000"
		fill-rule="nonzero"
		stroke-width="0.0"
		stroke-linejoin="miter"
		stroke-linecap="square"
		d="M339.96,129.42C342.93,126.81,339.60,131.47,338.62,128.29C337.85,123.10,341.63,117.86,345.56,113.63C342.79,121.81,345.06,129.04,339.96,129.42z"/>
	<path
		fill="#2A2526"
		stroke="#2A2526"
		fill-opacity="1.000"
		stroke-opacity="1.000"
		fill-rule="nonzero"
		stroke-width="0.4821825"
		stroke-linejoin="miter"
		stroke-linecap="square"
		d="M344.45,134.82C335.85,137.93,338.46,124.27,344.10,122.79C344.44,127.94,347.75,131.85,344.45,134.82z"/>
	<path
		fill="#5C92FF"
		stroke="#000000"
		fill-opacity="0.996"
		stroke-opacity="1.000"
		fill-rule="nonzero"
		stroke-width="0.964365"
		stroke-linejoin="miter"
		stroke-linecap="square"
		d="M338.27,128.92Q336.69,124.93,344.50,114.16Q334.81,117.17,330.72,122.96"/>
	<path
		fill="#FEFEFF"
		stroke="#FFFFFF"
		fill-opacity="0.996"
		stroke-opacity="1.000"
		fill-rule="nonzero"
		stroke-width="0.4821825"
		stroke-linejoin="miter"
		stroke-linecap="square"
		d="M289.82,126.71C291.78,122.05,295.14,119.89,299.63,117.54C305.34,115.01,310.42,109.47,318.21,123.56C306.69,116.54,303.33,116.77,289.82,126.71z"/>
	<path
		fill="#FEFEFF"
		stroke="#FFFFFF"
		fill-opacity="0.996"
		stroke-opacity="1.000"
		fill-rule="nonzero"
		stroke-width="0.0"
		stroke-linejoin="miter"
		stroke-linecap="square"
		d="M298.32,102.32C293.78,98.11,289.49,95.12,282.27,92.12C289.40,96.27,293.68,99.08,297.79,102.91L298.32,102.32z"/>
	<path
		fill="#000205"
		stroke="#050505"
		fill-opacity="0.996"
		stroke-opacity="1.000"
		fill-rule="nonzero"
		stroke-width="0.0"
		stroke-linejoin="miter"
		stroke-linecap="square"
		d="M287.02,134.41C285.74,133.92,284.78,132.63,284.29,130.89Q284.29,134.36,286.89,135.11L287.02,134.41z"/>
	<path
		fill="#000000"
		stroke="#050505"
		fill-opacity="0.996"
		stroke-opacity="1.000"
		fill-rule="nonzero"
		stroke-width="0.0"
		stroke-linejoin="miter"
		stroke-linecap="square"
		d="M289.22,127.41C293.46,119.72,298.50,118.14,299.80,117.23C303.33,115.53,305.95,112.52,310.42,111.48C308.66,111.48,294.40,114.78,289.22,127.41z"/>
	<path
		fill="#5C92FF"
		stroke="#050505"
		fill-opacity="0.996"
		stroke-opacity="1.000"
		fill-rule="nonzero"
		stroke-width="0.0"
		stroke-linejoin="miter"
		stroke-linecap="square"
		d="M313.77,113.11Q318.04,120.03,318.93,124.10C319.45,121.40,315.88,114.51,313.77,113.11z"/>
	<path
		fill="#5C92FF"
		stroke="#5C92FF"
		fill-opacity="0.996"
		stroke-opacity="1.000"
		fill-rule="nonzero"
		stroke-width="0.48736078"
		stroke-linejoin="miter"
		stroke-linecap="square"
		d="M280.75,68.70C287.49,63.06,288.13,51.99,286.14,47.72Q281.15,44.41,275.83,46.29L274.93,49.28Q276.41,59.65,274.49,68.80L280.75,68.70z"/>
	<path
		fill="#FFA8D2"
		stroke="#FFA8D2"
		fill-opacity="1.000"
		stroke-opacity="1.000"
		fill-rule="nonzero"
		stroke-width="0.48736078"
		stroke-linejoin="miter"
		stroke-linecap="square"
		d="M280.75,68.70C286.67,64.03,288.25,53.35,286.36,48.22Q282.48,45.66,277.36,46.37Q279.80,58.15,276.81,68.77L280.75,68.70z"/>
	<path
		fill="#5C92FF"
		stroke="#5C92FF"
		fill-opacity="0.996"
		stroke-opacity="1.000"
		fill-rule="nonzero"
		stroke-width="0.5030519"
		stroke-linejoin="miter"
		stroke-linecap="square"
		d="M239.22,68.37C239.57,62.58,242.03,55.34,244.74,49.58L243.39,47.33L237.24,45.52C230.14,44.89,226.24,56.15,234.98,68.66L239.22,68.37z"/>
	<path
		fill="#FFA8D2"
		stroke="#FFA8D2"
		fill-opacity="1.000"
		stroke-opacity="1.000"
		fill-rule="nonzero"
		stroke-width="0.5030519"
		stroke-linejoin="miter"
		stroke-linecap="square"
		d="M238.30,68.43C237.01,61.47,240.10,52.89,242.38,48.71L236.91,47.04C227.99,47.31,229.41,61.38,234.91,68.68L238.30,68.43z"/>
	<path
		fill="#0040C1"
		stroke="#003EB6"
		fill-opacity="0.996"
		stroke-opacity="1.000"
		fill-rule="nonzero"
		stroke-width="0.0"
		stroke-linejoin="miter"
		stroke-linecap="square"
		d="M276.27,195.17C249.78,185.56,217.84,167.70,215.90,138.22C216.68,151.34,233.76,179.54,271.43,189.08C285.50,193.81,304.34,192.22,307.36,190.51C302.55,189.18,281.49,183.20,266.50,168.46C292.70,192.74,323.74,185.10,325.52,185.10C326.45,199.86,314.86,205.63,276.27,195.17z"/>
	<path
		fill="#FFD751"
		stroke="#FFD751"
		fill-opacity="1.000"
		stroke-opacity="1.000"
		fill-rule="nonzero"
		stroke-width="1.44"
		stroke-linejoin="miter"
		stroke-linecap="square"
		d="M368.19,273.36C370.32,280.22,372.68,285.48,372.32,297.58C357.59,302.63,343.13,302.63,326.64,304.24C313.33,304.74,290.93,303.77,273.13,303.13C242.57,303.49,170.34,290.53,146.63,284.08Q159.54,225.14,173.22,180.39C187.27,184.42,204.54,181.09,222.95,183.11C236.66,185.56,248.07,194.31,265.77,198.83C284.88,205.64,311.33,204.46,321.27,200.18C325.18,197.99,327.64,195.75,327.95,190.86C334.99,193.22,333.63,198.75,333.10,203.92C344.51,217.25,354.68,223.69,361.76,240.08C356.42,240.03,349.19,240.08,346.19,243.64C352.64,248.89,362.77,260.78,368.19,273.36z"/>
	<path
		fill="#CECDD5"
		stroke="#CECDD5"
		fill-opacity="1.000"
		stroke-opacity="1.000"
		fill-rule="nonzero"
		stroke-width="1.44"
		stroke-linejoin="miter"
		stroke-linecap="square"
		d="M252.11,411.78C234.75,416.07,220.30,415.95,208.63,412.35Q206.52,409.32,207.77,404.72C200.23,393.98,192.45,382.15,190.69,367.42C170.58,362.55,135.67,324.04,146.27,289.21C172.20,297.67,229.74,306.34,246.31,306.23C270.21,307.45,301.02,309.34,319.64,310.40C338.12,310.40,353.31,304.54,370.85,302.14C367.28,342.17,339.76,354.29,337.04,356.92C336.25,371.58,329.80,385.18,324.48,405.65Q308.40,409.12,297.03,408.48C295.56,403.73,290.25,398.61,287.36,387.67C285.82,382.20,284.85,378.21,284.12,372.06C279.50,372.84,271.09,373.55,268.87,373.60C269.87,381.37,262.39,391.95,253.26,402.76Q253.22,406.93,252.11,411.78z"/>
	<path
		fill="#2A2526"
		stroke="#2A2526"
		fill-opacity="1.000"
		stroke-opacity="1.000"
		fill-rule="nonzero"
		stroke-width="0.96000004"
		stroke-linejoin="miter"
		stroke-linecap="square"
		d="M145.96,287.90Q145.49,286.26,146.17,285.15C148.87,285.83,154.33,287.55,163.76,289.19C191.86,293.22,218.00,300.12,231.48,300.46C254.47,302.97,302.21,305.65,312.11,305.65C333.47,305.71,351.16,304.24,372.71,298.40Q373.10,299.88,372.07,301.44C359.70,303.13,346.21,306.32,334.62,308.47C317.82,312.15,308.62,308.38,297.08,308.56C291.81,308.91,277.89,307.23,249.04,305.38C240.86,305.17,229.64,304.33,201.22,300.38C191.41,299.65,172.41,293.89,162.23,293.05C158.99,292.79,151.85,290.88,145.96,287.90z"/>
	<path
		fill="#FFFFFF"
		stroke="#F81900"
		fill-opacity="1.000"
		stroke-opacity="1.000"
		fill-rule="nonzero"
		stroke-width="0.0"
		stroke-linejoin="miter"
		stroke-linecap="square"
		d="M344.96,240.86L342.63,282.04C337.76,284.64,326.96,284.26,320.66,282.76L315.91,245.91C315.74,244.26,315.11,241.52,315.74,243.29C322.90,244.24,341.79,242.84,344.96,240.86z"/>
	<path
		fill="#6A6A6A"
		stroke="#6A6A6A"
		fill-opacity="1.000"
		stroke-opacity="1.000"
		fill-rule="nonzero"
		stroke-width="0.8020684"
		stroke-linejoin="miter"
		stroke-linecap="square"
		d="M328.18,244.22C314.41,244.35,314.50,242.64,317.39,242.11Q330.07,239.17,343.30,240.75C347.40,241.38,341.69,243.27,328.18,244.22z"/>
	<path
		fill="#5C92FF"
		stroke="#5C92FF"
		fill-opacity="0.984"
		stroke-opacity="0.984"
		fill-rule="nonzero"
		stroke-width="2.4"
		stroke-linejoin="miter"
		stroke-linecap="square"
		d="M322.58,279.29C337.39,283.22,325.27,287.76,314.67,290.35C297.74,297.44,280.61,303.76,255.69,298.67C236.56,294.92,211.15,281.39,199.61,264.40C204.52,259.16,205.57,259.16,212.12,249.31C216.40,242.60,232.57,231.67,255.04,231.62C268.87,244.60,292.52,248.84,304.07,250.59C319.26,248.28,339.88,253.40,319.64,265.35C309.14,272.33,343.34,265.51,322.58,279.29z"/>
	<path
		fill="#FFFFFF"
		stroke="#5C92FF"
		fill-opacity="1.000"
		stroke-opacity="0.984"
		fill-rule="nonzero"
		stroke-width="0.96000016"
		stroke-linejoin="miter"
		stroke-linecap="square"
		d="M325.78,260.66Q321.74,256.97,324.33,252.55C327.74,253.12,329.35,258.00,325.78,260.66z"/>
	<path
		fill="#FFFFFF"
		stroke="#5C92FF"
		fill-opacity="1.000"
		stroke-opacity="0.984"
		fill-rule="nonzero"
		stroke-width="0.96000016"
		stroke-linejoin="miter"
		stroke-linecap="square"
		d="M327.65,275.32Q325.29,272.81,326.90,270.24C329.86,271.01,330.02,273.71,327.65,275.32z"/>
	<path
		fill="#A7A1A3"
		stroke="#A7A1A3"
		fill-opacity="1.000"
		stroke-opacity="1.000"
		fill-rule="nonzero"
		stroke-width="0.96000016"
		stroke-linejoin="miter"
		stroke-linecap="square"
		d="M199.69,302.22C215.40,324.65,215.73,352.62,221.41,362.93C226.47,386.15,239.68,393.55,223.01,413.68C218.38,413.39,213.57,412.81,209.38,411.46C207.90,410.62,207.90,407.24,208.90,404.31C199.67,390.62,193.55,381.92,191.59,366.46C165.71,359.85,138.12,318.73,146.98,290.55C154.33,293.77,186.79,300.05,199.69,302.22z"/>
	<path
		fill="#2A0008"
		stroke="#2A2526"
		fill-opacity="1.000"
		stroke-opacity="1.000"
		fill-rule="nonzero"
		stroke-width="0.0"
		stroke-linejoin="miter"
		stroke-linecap="square"
		d="M261.61,337.62C258.83,341.77,268.39,349.85,259.13,359.07C251.89,365.85,240.53,367.53,231.09,367.41C225.64,367.52,214.37,365.13,208.01,362.01C201.65,358.55,197.05,354.31,195.28,349.75C193.02,341.81,197.32,331.53,190.23,330.29C197.65,329.65,193.35,339.92,195.61,347.86C197.38,352.42,201.98,356.67,208.34,360.12C214.70,363.24,225.97,365.64,231.42,365.52C240.86,365.65,252.22,363.96,259.46,357.19C266.69,350.74,258.06,340.15,261.61,337.62z"/>
	<path
		fill="#5C92FF"
		stroke="#5C92FF"
		fill-opacity="0.984"
		stroke-opacity="0.984"
		fill-rule="nonzero"
		stroke-width="0.0"
		stroke-linejoin="miter"
		stroke-linecap="square"
		d="M367.96,271.26C360.63,257.16,352.43,248.05,347.10,243.52C352.79,239.74,358.39,240.28,362.20,240.69C365.67,246.32,369.27,257.88,367.96,271.26z"/>
	<path
		fill="#0040C1"
		stroke="#8AD9FF"
		fill-opacity="0.996"
		stroke-opacity="1.000"
		fill-rule="nonzero"
		stroke-width="0.0"
		stroke-linejoin="miter"
		stroke-linecap="square"
		d="M367.97,271.24L365.16,266.16C366.36,257.27,364.71,247.93,360.62,240.53L362.77,240.69C368.40,250.92,368.75,264.71,367.97,271.24z"/>
	<path
		fill="#2A0008"
		stroke="#2A0008"
		fill-opacity="1.000"
		stroke-opacity="1.000"
		fill-rule="nonzero"
		stroke-width="0.0"
		stroke-linejoin="miter"
		stroke-linecap="square"
		d="M221.52,408.65C232.70,408.95,247.34,405.07,252.85,402.09C251.93,408.77,228.77,410.53,221.52,408.65z"/>
	<path
		fill="#2A0008"
		stroke="#2A0008"
		fill-opacity="1.000"
		stroke-opacity="1.000"
		fill-rule="nonzero"
		stroke-width="0.0"
		stroke-linejoin="miter"
		stroke-linecap="square"
		d="M283.55,374.84C310.73,370.90,326.08,367.26,335.90,358.02C325.01,365.85,297.03,369.53,283.39,372.02L283.55,374.84z"/>
	<path
		fill="#2A0008"
		stroke="#2A0008"
		fill-opacity="1.000"
		stroke-opacity="1.000"
		fill-rule="nonzero"
		stroke-width="0.48000002"
		stroke-linejoin="miter"
		stroke-linecap="square"
		d="M289.16,325.15C325.85,326.64,353.20,326.64,357.74,320.18C335.51,326.63,311.10,324.15,289.16,325.15z"/>
	<path
		fill="#FF8C19"
		stroke="#FF8C19"
		fill-opacity="1.000"
		stroke-opacity="1.000"
		fill-rule="nonzero"
		stroke-width="0.48000002"
		stroke-linejoin="miter"
		stroke-linecap="square"
		d="M209.86,247.59C197.26,220.40,192.51,206.93,194.56,183.83C193.14,183.79,179.70,183.46,174.03,181.48C165.69,209.06,157.91,236.31,147.60,283.29C163.76,287.90,182.43,290.80,199.74,294.15C199.92,288.39,199.74,286.08,198.28,281.85C210.96,289.31,231.62,295.86,248.89,298.40C229.64,292.42,213.03,282.43,203.80,271.71C198.68,266.06,197.12,263.37,197.03,262.30C201.77,259.15,206.57,252.11,209.86,247.59z"/>
	<path
		fill="#000000"
		stroke="#BF5F00"
		fill-opacity="0.000"
		stroke-opacity="1.000"
		fill-rule="nonzero"
		stroke-width="2.3999999"
		stroke-linejoin="miter"
		stroke-linecap="square"
		d="M233.89,204.31C236.50,206.82,252.52,218.70,254.79,229.66C219.08,231.05,211.64,248.31,205.38,255.95C196.07,267.38,189.10,267.50,185.00,270.81C181.57,238.37,179.92,212.30,188.07,199.56"/>
	<path
		fill="#6D3600"
		stroke="#696367"
		fill-opacity="1.000"
		stroke-opacity="1.000"
		fill-rule="nonzero"
		stroke-width="0.0"
		stroke-linejoin="miter"
		stroke-linecap="square"
		d="M184.01,273.11C187.67,269.56,193.49,268.38,198.39,264.49C199.92,266.19,201.51,269.00,204.16,271.62C201.51,273.60,193.37,275.28,184.01,273.11z"/>
	<path
		fill="#BD5D00"
		stroke="#BD5D00"
		fill-opacity="1.000"
		stroke-opacity="1.000"
		fill-rule="nonzero"
		stroke-width="0.48000002"
		stroke-linejoin="miter"
		stroke-linecap="square"
		d="M174.66,183.17Q180.22,187.43,188.75,188.35C195.41,188.90,209.26,182.84,244.17,196.86C255.35,202.04,308.98,218.05,331.77,204.38C308.98,220.87,254.89,204.06,244.17,198.90C212.46,187.24,205.45,188.63,189.59,189.41C181.78,188.50,175.88,184.97,174.66,183.17z"/>
	<path
		fill="#2A0008"
		stroke="#2A2526"
		fill-opacity="1.000"
		stroke-opacity="1.000"
		fill-rule="nonzero"
		stroke-width="0.0"
		stroke-linejoin="miter"
		stroke-linecap="square"
		d="M266.98,336.29C262.23,341.19,273.64,347.03,264.54,357.99C259.23,366.06,248.28,369.55,238.95,370.93C233.59,371.92,222.08,371.36,215.30,369.30C208.47,366.91,203.25,363.45,198.96,362.39C193.86,360.25,191.96,357.87,191.25,348.07C192.14,361.33,198.27,361.51,200.72,362.54C204.42,363.97,208.49,364.99,215.32,367.38C222.10,369.45,233.61,370.00,238.98,369.02C248.31,367.63,259.25,364.15,264.30,355.79C271.42,348.79,261.21,339.71,266.98,336.29z"/>
	<path
		fill="#5C92FF"
		stroke="#5C92FF"
		fill-opacity="0.984"
		stroke-opacity="0.984"
		fill-rule="nonzero"
		stroke-width="1.4400003"
		stroke-linejoin="miter"
		stroke-linecap="square"
		d="M221.59,416.14Q213.79,415.46,208.93,413.84C208.04,424.06,214.32,423.59,221.59,416.14z"/>
	<path
		fill="#5C92FF"
		stroke="#5C92FF"
		fill-opacity="0.984"
		stroke-opacity="0.984"
		fill-rule="nonzero"
		stroke-width="1.4400003"
		stroke-linejoin="miter"
		stroke-linecap="square"
		d="M236.15,416.03Q228.29,416.78,223.19,416.30C225.65,424.27,232.98,425.28,236.15,416.03z"/>
	<path
		fill="#5C92FF"
		stroke="#5C92FF"
		fill-opacity="0.984"
		stroke-opacity="0.984"
		fill-rule="nonzero"
		stroke-width="1.4400003"
		stroke-linejoin="miter"
		stroke-linecap="square"
		d="M249.87,413.82Q241.99,415.42,236.83,415.95C240.58,423.41,247.98,423.41,249.87,413.82z"/>
	<path
		fill="#5C92FF"
		stroke="#5C92FF"
		fill-opacity="1.000"
		stroke-opacity="0.984"
		fill-rule="nonzero"
		stroke-width="1.4400003"
		stroke-linejoin="miter"
		stroke-linecap="square"
		d="M297.18,409.88C297.18,416.22,306.55,417.02,306.59,409.68Q300.62,410.11,297.18,409.88z"/>
	<path
		fill="#5C92FF"
		stroke="#5C92FF"
		fill-opacity="1.000"
		stroke-opacity="0.984"
		fill-rule="nonzero"
		stroke-width="1.4400003"
		stroke-linejoin="miter"
		stroke-linecap="square"
		d="M307.84,409.58C308.51,415.01,316.71,417.97,314.91,408.73Q309.65,409.47,307.84,409.58z"/>
	<path
		fill="#5C92FF"
		stroke="#5C92FF"
		fill-opacity="1.000"
		stroke-opacity="0.984"
		fill-rule="nonzero"
		stroke-width="1.4400003"
		stroke-linejoin="miter"
		stroke-linecap="square"
		d="M315.55,408.65C317.28,414.48,327.17,416.27,322.50,407.48Q317.88,408.33,315.55,408.65z"/>
	<path
		fill="#5C92FF"
		stroke="#5C92FF"
		fill-opacity="1.000"
		stroke-opacity="0.984"
		fill-rule="nonzero"
		stroke-width="1.4400003"
		stroke-linejoin="miter"
		stroke-linecap="square"
		d="M324.97,406.82Q324.80,406.80,322.91,407.39C324.60,414.03,335.91,415.71,324.97,406.82z"/>
	<path
		fill="#FFFFFF"
		stroke="#FFFFFF"
		fill-opacity="1.000"
		stroke-opacity="0.984"
		fill-rule="nonzero"
		stroke-width="1.4400003"
		stroke-linejoin="miter"
		stroke-linecap="square"
		d="M210.07,418.34L215.56,419.71C214.29,421.94,209.87,421.32,210.07,418.34z"/>
	<path
		fill="#FFFFFF"
		stroke="#FFFFFF"
		fill-opacity="1.000"
		stroke-opacity="0.984"
		fill-rule="nonzero"
		stroke-width="1.4400003"
		stroke-linejoin="miter"
		stroke-linecap="square"
		d="M226.24,419.94L232.61,420.20C231.19,423.45,226.96,422.45,226.24,419.94z"/>
	<path
		fill="#FFFFFF"
		stroke="#FFFFFF"
		fill-opacity="1.000"
		stroke-opacity="0.984"
		fill-rule="nonzero"
		stroke-width="1.4400003"
		stroke-linejoin="miter"
		stroke-linecap="square"
		d="M246.85,418.56C246.32,421.33,241.87,421.59,240.58,419.41L246.85,418.56z"/>
	<path
		fill="#FFFFFF"
		stroke="#FFFFFF"
		fill-opacity="1.000"
		stroke-opacity="0.984"
		fill-rule="nonzero"
		stroke-width="1.4400003"
		stroke-linejoin="miter"
		stroke-linecap="square"
		d="M299.10,412.53L305.09,412.53C304.72,415.03,299.01,414.95,299.10,412.53z"/>
	<path
		fill="#FFFFFF"
		stroke="#FFFFFF"
		fill-opacity="1.000"
		stroke-opacity="0.984"
		fill-rule="nonzero"
		stroke-width="1.4400003"
		stroke-linejoin="miter"
		stroke-linecap="square"
		d="M311.16,413.39L314.43,412.72C314.65,414.48,311.75,414.91,311.16,413.39z"/>
	<path
		fill="#FFFFFF"
		stroke="#FFFFFF"
		fill-opacity="1.000"
		stroke-opacity="0.984"
		fill-rule="nonzero"
		stroke-width="1.4400003"
		stroke-linejoin="miter"
		stroke-linecap="square"
		d="M323.31,412.20C323.50,413.14,320.77,413.79,320.28,412.86L323.31,412.20z"/>
	<path
		fill="#FFFFFF"
		stroke="#FFFFFF"
		fill-opacity="1.000"
		stroke-opacity="0.984"
		fill-rule="nonzero"
		stroke-width="1.4400003"
		stroke-linejoin="miter"
		stroke-linecap="square"
		d="M327.91,412.28L329.06,411.47C330.03,412.36,328.87,413.25,327.91,412.28z"/>
	<path
		fill="#0040C1"
		stroke="#4B4B4B"
		fill-opacity="0.996"
		stroke-opacity="0.984"
		fill-rule="nonzero"
		stroke-width="0.0"
		stroke-linejoin="miter"
		stroke-linecap="square"
		d="M313.97,291.99C287.80,304.66,259.68,303.37,244.16,296.55C231.14,292.31,209.46,281.39,198.41,264.48C201.99,261.84,205.25,258.07,208.92,253.18C234.41,279.47,291.77,295.58,327.74,274.99C329.08,274.15,330.13,272.98,330.43,271.78Q330.64,274.71,325.96,278.08Q325.61,278.31,324.94,278.86C329.35,280.48,331.66,282.46,329.80,285.18C325.27,290.35,315.49,290.87,313.97,291.99z"/>
	<path
		fill="#FFFFFF"
		stroke="#0040C1"
		fill-opacity="1.000"
		stroke-opacity="0.996"
		fill-rule="nonzero"
		stroke-width="0.96000016"
		stroke-linejoin="miter"
		stroke-linecap="square"
		d="M327.25,286.22Q325.14,283.15,327.15,280.68C330.11,281.41,330.55,284.74,327.25,286.22z"/>
	<path
		fill="#0040C1"
		stroke="#0040C1"
		fill-opacity="0.996"
		stroke-opacity="0.996"
		fill-rule="nonzero"
		stroke-width="0.0"
		stroke-linejoin="miter"
		stroke-linecap="square"
		d="M194.82,181.81C187.45,159.80,189.50,91.22,234.50,68.52C201.80,74.98,175.17,126.71,172.74,179.53C180.14,182.93,191.46,181.67,194.82,181.81z"/>
</svg>