<?xml version="1.0" encoding="utf-8"?>
<svg
	version="1.1"
	xmlns="http://www.w3.org/2000/svg"
	xmlns:xlink="http://www.w3.org/1999/xlink"
	x="0px" y="0px"
	width="1048.0px" height="1048.0px"
	viewBox="0 0 1048.0 1048.0"
	enable-background="new 0 0 1048.0 1048.0"
	xml:space="preserve">
	<path
		fill="#A2A2A2"
		stroke="#171717"
		fill-opacity="1.000"
		stroke-opacity="1.000"
		fill-rule="nonzero"
		stroke-width="0.0"
		stroke-linejoin="miter"
		stroke-linecap="square"
		d="M533.46,571.60L457.54,599.26L447.20,574.17L527.60,547.10L533.46,571.60z"/>
	<path
		fill="#A2A2A2"
		stroke="#171717"
		fill-opacity="1.000"
		stroke-opacity="1.000"
		fill-rule="nonzero"
		stroke-width="0.0"
		stroke-linejoin="miter"
		stroke-linecap="square"
		d="M416.57,503.16L427.54,531.81L513.79,503.85L502.99,474.79L416.57,503.16z"/>
	<path
		fill="#00DDB2"
		stroke="#000000"
		fill-opacity="1.000"
		stroke-opacity="1.000"
		fill-rule="nonzero"
		stroke-width="0.0"
		stroke-linejoin="miter"
		stroke-linecap="square"
		d="M123.47,862.76C123.55,763.17,152.94,705.99,223.76,612.15C190.07,524.81,275.83,481.28,345.35,447.22C362.50,439.72,372.12,430.63,380.10,449.45L450.53,610.62C460.06,632.45,449.25,637.28,436.05,642.36C344.45,675.02,305.62,706.33,251.04,648.44C197.88,698.12,168.63,776.65,166.26,867.14C163.89,893.42,123.47,893.42,123.47,862.76z"/>
	<path
		fill="#00DDB2"
		stroke="#000000"
		fill-opacity="1.000"
		stroke-opacity="1.000"
		fill-rule="nonzero"
		stroke-width="0.0"
		stroke-linejoin="miter"
		stroke-linecap="square"
		d="M749.77,468.85C863.40,502.47,954.09,568.92,974.59,622.11C996.38,641.48,968.40,673.05,944.50,645.77C860.92,546.90,779.15,508.57,725.05,510.74C721.19,570.78,666.61,598.14,586.34,620.35C569.46,623.91,559.67,627.45,553.48,607.36L505.55,444.45C499.62,424.64,510.62,420.09,519.40,417.21C595.41,391.47,656.00,364.85,706.92,429.84Q731.44,464.01,749.77,468.85z"/>
	<path
		fill="#171717"
		stroke="#171717"
		fill-opacity="1.000"
		stroke-opacity="1.000"
		fill-rule="nonzero"
		stroke-width="3.0410097"
		stroke-linejoin="miter"
		stroke-linecap="square"
		d="M550.76,601.15C553.58,609.43,543.28,611.39,541.74,603.63L493.34,446.41C491.86,439.42,501.69,436.95,503.44,443.93L550.76,601.15z"/>
	<path
		fill="#171717"
		stroke="#171717"
		fill-opacity="1.000"
		stroke-opacity="1.000"
		fill-rule="nonzero"
		stroke-width="3.0410097"
		stroke-linejoin="miter"
		stroke-linecap="square"
		d="M456.62,598.11C460.36,606.02,450.34,609.13,447.94,601.59L382.16,450.82C379.90,444.03,389.40,440.47,391.92,447.21L456.62,598.11z"/>
	<path
		fill="#A2A2A2"
		stroke="#171717"
		fill-opacity="1.000"
		stroke-opacity="1.000"
		fill-rule="nonzero"
		stroke-width="0.0"
		stroke-linejoin="miter"
		stroke-linecap="square"
		d="M485.83,741.17C484.40,762.87,449.33,763.50,450.40,738.71L454.89,663.29C456.13,642.38,489.21,640.67,489.91,665.51L485.83,741.17z"/>
	<path
		fill="#A2A2A2"
		stroke="#171717"
		fill-opacity="1.000"
		stroke-opacity="1.000"
		fill-rule="nonzero"
		stroke-width="0.0"
		stroke-linejoin="miter"
		stroke-linecap="square"
		d="M559.67,669.60C573.23,684.07,558.55,709.54,537.55,693.48L501.62,659.44C486.05,642.07,506.06,620.78,523.85,636.68L559.67,669.60z"/>
	<path
		fill="#A2A2A2"
		stroke="#171717"
		fill-opacity="1.000"
		stroke-opacity="1.000"
		fill-rule="nonzero"
		stroke-width="0.0"
		stroke-linejoin="miter"
		stroke-linecap="square"
		d="M405.56,359.59C419.00,379.29,392.72,398.78,377.64,376.34L352.65,333.62C338.99,312.40,367.42,297.31,380.36,317.97L405.56,359.59z"/>
	<path
		fill="#A2A2A2"
		stroke="#171717"
		fill-opacity="1.000"
		stroke-opacity="1.000"
		fill-rule="nonzero"
		stroke-width="0.0"
		stroke-linejoin="miter"
		stroke-linecap="square"
		d="M467.96,357.74C466.52,379.44,431.46,380.07,432.53,355.28L437.02,279.86C438.25,258.95,471.33,257.24,472.04,282.08L467.96,357.74z"/>
</svg>