<?xml version="1.0" encoding="utf-8"?>
<svg
	version="1.1"
	xmlns="http://www.w3.org/2000/svg"
	xmlns:xlink="http://www.w3.org/1999/xlink"
	x="0px" y="0px"
	width="200.0px" height="200.0px"
	viewBox="0 0 200.0 200.0"
	enable-background="new 0 0 200.0 200.0"
	xml:space="preserve">
	<path
		fill="#FFD789"
		stroke="#000000"
		fill-opacity="0.984"
		stroke-opacity="1.000"
		fill-rule="nonzero"
		stroke-width="0.0"
		stroke-linejoin="miter"
		stroke-linecap="square"
		d="M0.00,0.00L200.00,0.00L200.00,200.00L0.00,200.00z"/>
	<path
		fill="#5C92FF"
		stroke="#5992FF"
		fill-opacity="0.996"
		stroke-opacity="1.000"
		fill-rule="nonzero"
		stroke-width="0.9418363"
		stroke-linejoin="miter"
		stroke-linecap="square"
		d="M123.54,86.04C133.01,85.34,133.01,81.98,133.01,79.93L133.01,77.14L138.83,77.14Q141.89,77.31,141.79,73.88L141.79,71.55L142.93,71.55C145.76,71.71,145.65,70.37,145.74,68.21L145.74,57.28C145.74,55.10,146.78,46.18,138.73,42.52L138.71,42.52Q129.44,37.42,113.77,32.19L117.23,25.70C118.05,23.48,117.44,21.52,114.52,21.52L90.56,21.26C77.18,21.52,60.46,43.38,58.61,75.16C67.66,77.38,80.83,72.81,97.81,82.35C106.20,85.34,115.82,86.94,123.54,86.04z"/>
	<path
		fill="#FFFFFF"
		stroke="#E8E8E8"
		fill-opacity="0.996"
		stroke-opacity="1.000"
		fill-rule="nonzero"
		stroke-width="0.0"
		stroke-linejoin="miter"
		stroke-linecap="square"
		d="M96.44,30.06C98.79,30.23,103.62,29.63,104.49,29.19C105.37,31.82,103.55,33.63,100.81,33.86C97.98,34.07,96.63,31.70,96.44,30.06z"/>
	<path
		fill="#000000"
		stroke="#000000"
		fill-opacity="0.996"
		stroke-opacity="1.000"
		fill-rule="nonzero"
		stroke-width="0.23545907"
		stroke-linejoin="miter"
		stroke-linecap="square"
		d="M98.52,29.08C99.45,29.08,100.22,29.85,100.22,30.78C100.22,31.72,99.45,32.48,98.52,32.48C97.58,32.48,96.82,31.72,96.82,30.78C96.82,29.85,97.58,29.08,98.52,29.08z"/>
	<path
		fill="#6FC8FF"
		stroke="#49BAFF"
		fill-opacity="1.000"
		stroke-opacity="1.000"
		fill-rule="nonzero"
		stroke-width="0.0"
		stroke-linejoin="miter"
		stroke-linecap="square"
		d="M104.19,29.43C102.45,29.81,98.84,30.23,96.92,30.09Q95.75,30.08,96.12,29.46C99.13,25.78,104.03,25.10,104.99,27.88Q105.48,29.22,104.19,29.43z"/>
	<path
		fill="#2A2526"
		stroke="#2A2526"
		fill-opacity="1.000"
		stroke-opacity="1.000"
		fill-rule="nonzero"
		stroke-width="0.23545907"
		stroke-linejoin="miter"
		stroke-linecap="square"
		d="M120.14,51.26C120.79,46.30,125.03,46.57,125.63,50.83C124.86,54.89,119.75,55.40,120.14,51.26z"/>
	<path
		fill="#5C92FF"
		stroke="#0043BC"
		fill-opacity="0.996"
		stroke-opacity="1.000"
		fill-rule="nonzero"
		stroke-width="0.9418363"
		stroke-linejoin="miter"
		stroke-linecap="square"
		d="M117.40,72.23C125.71,72.35,134.43,70.57,141.98,71.78"/>
	<path
		fill="#FFFFFF"
		stroke="#FFFFFF"
		fill-opacity="0.996"
		stroke-opacity="1.000"
		fill-rule="nonzero"
		stroke-width="0.29574046"
		stroke-linejoin="miter"
		stroke-linecap="square"
		d="M123.85,72.63Q123.04,77.43,121.17,72.76Q122.50,72.51,123.85,72.63z"/>
	<path
		fill="#FFFFFF"
		stroke="#FFFFFF"
		fill-opacity="0.996"
		stroke-opacity="1.000"
		fill-rule="nonzero"
		stroke-width="0.28714937"
		stroke-linejoin="miter"
		stroke-linecap="square"
		d="M116.90,29.08C115.06,34.46,110.92,32.13,111.29,29.46C112.99,29.16,115.38,29.11,116.90,29.08z"/>
	<path
		fill="#000000"
		stroke="#FFFFFF"
		fill-opacity="0.996"
		stroke-opacity="1.000"
		fill-rule="nonzero"
		stroke-width="0.0"
		stroke-linejoin="miter"
		stroke-linecap="square"
		d="M112.57,28.50C113.36,28.50,114.00,29.15,114.00,29.94C114.00,30.73,113.36,31.38,112.57,31.38C111.77,31.38,111.13,30.73,111.13,29.94C111.13,29.15,111.77,28.50,112.57,28.50z"/>
	<path
		fill="#6FC8FF"
		stroke="#6FC8FF"
		fill-opacity="1.000"
		stroke-opacity="1.000"
		fill-rule="nonzero"
		stroke-width="0.23545907"
		stroke-linejoin="miter"
		stroke-linecap="square"
		d="M111.28,29.25C111.72,25.14,116.28,26.01,117.56,26.01C118.16,30.70,116.12,28.10,111.28,29.25z"/>
	<path
		fill="#FFFFFF"
		stroke="#FFFFFF"
		fill-opacity="0.996"
		stroke-opacity="1.000"
		fill-rule="nonzero"
		stroke-width="0.28714937"
		stroke-linejoin="miter"
		stroke-linecap="square"
		d="M137.83,72.00Q138.55,76.77,140.39,72.19Q138.91,72.02,137.83,72.00z"/>
	<path
		fill="#FFFFFF"
		stroke="#FFFFFF"
		fill-opacity="0.996"
		stroke-opacity="1.000"
		fill-rule="nonzero"
		stroke-width="0.0"
		stroke-linejoin="miter"
		stroke-linecap="square"
		d="M139.66,50.78C141.11,49.51,139.49,51.78,139.01,50.23C138.63,47.70,140.48,45.14,142.40,43.07C141.05,47.07,142.15,50.60,139.66,50.78z"/>
	<path
		fill="#2A2526"
		stroke="#2A2526"
		fill-opacity="1.000"
		stroke-opacity="1.000"
		fill-rule="nonzero"
		stroke-width="0.23545907"
		stroke-linejoin="miter"
		stroke-linecap="square"
		d="M141.85,53.42C137.66,54.94,138.93,48.27,141.69,47.55C141.85,50.06,143.47,51.97,141.85,53.42z"/>
	<path
		fill="#5C92FF"
		stroke="#000000"
		fill-opacity="0.996"
		stroke-opacity="1.000"
		fill-rule="nonzero"
		stroke-width="0.47091815"
		stroke-linejoin="miter"
		stroke-linecap="square"
		d="M138.84,50.54Q138.07,48.59,141.88,43.33Q137.15,44.80,135.15,47.63"/>
	<path
		fill="#FEFEFF"
		stroke="#FFFFFF"
		fill-opacity="0.996"
		stroke-opacity="1.000"
		fill-rule="nonzero"
		stroke-width="0.23545907"
		stroke-linejoin="miter"
		stroke-linecap="square"
		d="M115.18,49.46C116.14,47.19,117.78,46.13,119.97,44.98C122.76,43.75,125.24,41.04,129.04,47.92C123.42,44.49,121.78,44.61,115.18,49.46z"/>
	<path
		fill="#FEFEFF"
		stroke="#FFFFFF"
		fill-opacity="0.996"
		stroke-opacity="1.000"
		fill-rule="nonzero"
		stroke-width="0.0"
		stroke-linejoin="miter"
		stroke-linecap="square"
		d="M119.33,37.55C117.11,35.50,115.02,34.04,111.49,32.57C114.98,34.60,117.06,35.97,119.07,37.84L119.33,37.55z"/>
	<path
		fill="#000205"
		stroke="#050505"
		fill-opacity="0.996"
		stroke-opacity="1.000"
		fill-rule="nonzero"
		stroke-width="0.0"
		stroke-linejoin="miter"
		stroke-linecap="square"
		d="M113.81,53.22C113.18,52.98,112.72,52.35,112.48,51.50Q112.48,53.19,113.75,53.56L113.81,53.22z"/>
	<path
		fill="#000000"
		stroke="#050505"
		fill-opacity="0.996"
		stroke-opacity="1.000"
		fill-rule="nonzero"
		stroke-width="0.0"
		stroke-linejoin="miter"
		stroke-linecap="square"
		d="M114.89,49.80C116.95,46.05,119.42,45.27,120.05,44.83C121.78,44.00,123.06,42.53,125.24,42.02C124.38,42.02,117.41,43.64,114.89,49.80z"/>
	<path
		fill="#5C92FF"
		stroke="#050505"
		fill-opacity="0.996"
		stroke-opacity="1.000"
		fill-rule="nonzero"
		stroke-width="0.0"
		stroke-linejoin="miter"
		stroke-linecap="square"
		d="M126.87,42.82Q128.96,46.20,129.39,48.18C129.65,46.87,127.90,43.50,126.87,42.82z"/>
	<path
		fill="#5C92FF"
		stroke="#5C92FF"
		fill-opacity="0.996"
		stroke-opacity="1.000"
		fill-rule="nonzero"
		stroke-width="0.23798773"
		stroke-linejoin="miter"
		stroke-linecap="square"
		d="M110.75,21.13C114.04,18.38,114.35,12.97,113.38,10.89Q110.94,9.27,108.35,10.19L107.91,11.65Q108.63,16.71,107.69,21.18L110.75,21.13z"/>
	<path
		fill="#FFA8D2"
		stroke="#FFA8D2"
		fill-opacity="1.000"
		stroke-opacity="1.000"
		fill-rule="nonzero"
		stroke-width="0.23798773"
		stroke-linejoin="miter"
		stroke-linecap="square"
		d="M110.75,21.13C113.64,18.85,114.41,13.64,113.49,11.13Q111.60,9.88,109.09,10.23Q110.29,15.98,108.83,21.17L110.75,21.13z"/>
	<path
		fill="#5C92FF"
		stroke="#5C92FF"
		fill-opacity="0.996"
		stroke-opacity="1.000"
		fill-rule="nonzero"
		stroke-width="0.24565"
		stroke-linejoin="miter"
		stroke-linecap="square"
		d="M90.47,20.97C90.64,18.14,91.84,14.61,93.16,11.80L92.50,10.70L89.51,9.81C86.04,9.50,84.13,15.00,88.40,21.11L90.47,20.97z"/>
	<path
		fill="#FFA8D2"
		stroke="#FFA8D2"
		fill-opacity="1.000"
		stroke-opacity="1.000"
		fill-rule="nonzero"
		stroke-width="0.24565"
		stroke-linejoin="miter"
		stroke-linecap="square"
		d="M90.02,21.00C89.39,17.60,90.90,13.41,92.01,11.37L89.34,10.55C84.99,10.69,85.68,17.56,88.37,21.12L90.02,21.00z"/>
	<path
		fill="#0040C1"
		stroke="#003EB6"
		fill-opacity="0.996"
		stroke-opacity="1.000"
		fill-rule="nonzero"
		stroke-width="0.0"
		stroke-linejoin="miter"
		stroke-linecap="square"
		d="M108.56,82.89C95.63,78.20,80.03,69.48,79.08,55.08C79.47,61.49,87.80,75.26,106.20,79.92C113.07,82.23,122.27,81.45,123.74,80.61C121.39,79.97,111.11,77.04,103.79,69.85C116.58,81.70,131.74,77.97,132.61,77.97C133.06,85.18,127.41,88.00,108.56,82.89z"/>
	<path
		fill="#FFD751"
		stroke="#FFD751"
		fill-opacity="1.000"
		stroke-opacity="1.000"
		fill-rule="nonzero"
		stroke-width="0.70317996"
		stroke-linejoin="miter"
		stroke-linecap="square"
		d="M153.45,121.07C154.49,124.42,155.64,126.99,155.46,132.90C148.27,135.37,141.21,135.37,133.16,136.15C126.66,136.39,115.72,135.92,107.03,135.61C92.10,135.78,56.83,129.46,45.26,126.31Q51.56,97.52,58.24,75.67C65.10,77.64,73.53,76.02,82.52,77.00C89.22,78.20,94.79,82.47,103.43,84.68C112.76,88.00,125.68,87.43,130.53,85.34C132.45,84.27,133.65,83.17,133.80,80.79C137.24,81.94,136.57,84.64,136.31,87.16C141.89,93.67,146.85,96.82,150.31,104.82C147.70,104.80,144.17,104.82,142.70,106.56C145.86,109.12,150.80,114.93,153.45,121.07z"/>
	<path
		fill="#CECDD5"
		stroke="#CECDD5"
		fill-opacity="1.000"
		stroke-opacity="1.000"
		fill-rule="nonzero"
		stroke-width="0.70317996"
		stroke-linejoin="miter"
		stroke-linecap="square"
		d="M96.76,188.66C88.28,190.76,81.23,190.70,75.53,188.94Q74.50,187.46,75.11,185.22C71.43,179.97,67.63,174.20,66.77,167.00C56.95,164.63,39.91,145.82,45.08,128.81C57.74,132.94,85.84,137.18,93.93,137.12C105.60,137.72,120.65,138.64,129.74,139.16C138.77,139.16,146.18,136.30,154.74,135.13C153.00,154.67,139.57,160.59,138.24,161.87C137.85,169.03,134.70,175.68,132.11,185.67Q124.25,187.37,118.70,187.05C117.98,184.74,115.39,182.24,113.98,176.89C113.23,174.22,112.75,172.27,112.39,169.27C110.14,169.65,106.03,170.00,104.95,170.02C105.44,173.82,101.79,178.98,97.33,184.26Q97.31,186.30,96.76,188.66z"/>
	<path
		fill="#2A2526"
		stroke="#2A2526"
		fill-opacity="1.000"
		stroke-opacity="1.000"
		fill-rule="nonzero"
		stroke-width="0.46878666"
		stroke-linejoin="miter"
		stroke-linecap="square"
		d="M44.93,128.17Q44.70,127.37,45.03,126.83C46.35,127.16,49.02,128.00,53.62,128.80C67.34,130.77,80.11,134.14,86.69,134.31C97.92,135.53,121.23,136.84,126.06,136.84C136.49,136.87,145.13,136.15,155.66,133.30Q155.84,134.02,155.34,134.78C149.30,135.61,142.72,137.16,137.05,138.22C128.85,140.01,124.36,138.17,118.73,138.26C116.15,138.43,109.35,137.61,95.27,136.71C91.27,136.61,85.79,136.19,71.92,134.26C67.13,133.91,57.85,131.10,52.88,130.69C51.29,130.56,47.80,129.63,44.93,128.17z"/>
	<path
		fill="#FFFFFF"
		stroke="#F81900"
		fill-opacity="1.000"
		stroke-opacity="1.000"
		fill-rule="nonzero"
		stroke-width="0.0"
		stroke-linejoin="miter"
		stroke-linecap="square"
		d="M142.10,105.20L140.97,125.31C138.59,126.58,133.31,126.39,130.24,125.66L127.92,107.67C127.84,106.86,127.53,105.52,127.84,106.39C131.33,106.85,140.56,106.17,142.10,105.20z"/>
	<path
		fill="#6A6A6A"
		stroke="#6A6A6A"
		fill-opacity="1.000"
		stroke-opacity="1.000"
		fill-rule="nonzero"
		stroke-width="0.39166558"
		stroke-linejoin="miter"
		stroke-linecap="square"
		d="M133.91,106.84C127.19,106.90,127.23,106.07,128.64,105.81Q134.83,104.38,141.29,105.15C143.30,105.45,140.51,106.38,133.91,106.84z"/>
	<path
		fill="#5C92FF"
		stroke="#5C92FF"
		fill-opacity="0.984"
		stroke-opacity="0.984"
		fill-rule="nonzero"
		stroke-width="1.1719667"
		stroke-linejoin="miter"
		stroke-linecap="square"
		d="M131.18,123.97C138.41,125.89,132.49,128.11,127.31,129.37C119.05,132.83,110.68,135.92,98.51,133.43C89.17,131.60,76.76,124.99,71.13,116.69C73.52,114.14,74.04,114.14,77.24,109.33C79.33,106.05,87.22,100.71,98.19,100.69C104.95,107.03,116.50,109.10,122.14,109.95C129.56,108.82,139.62,111.33,129.74,117.16C124.61,120.57,141.31,117.24,131.18,123.97z"/>
	<path
		fill="#FFFFFF"
		stroke="#5C92FF"
		fill-opacity="1.000"
		stroke-opacity="0.984"
		fill-rule="nonzero"
		stroke-width="0.46878672"
		stroke-linejoin="miter"
		stroke-linecap="square"
		d="M132.74,114.87Q130.77,113.07,132.03,110.91C133.70,111.19,134.48,113.57,132.74,114.87z"/>
	<path
		fill="#FFFFFF"
		stroke="#5C92FF"
		fill-opacity="1.000"
		stroke-opacity="0.984"
		fill-rule="nonzero"
		stroke-width="0.46878672"
		stroke-linejoin="miter"
		stroke-linecap="square"
		d="M133.65,122.03Q132.50,120.80,133.28,119.55C134.73,119.92,134.81,121.24,133.65,122.03z"/>
	<path
		fill="#A7A1A3"
		stroke="#A7A1A3"
		fill-opacity="1.000"
		stroke-opacity="1.000"
		fill-rule="nonzero"
		stroke-width="0.46878672"
		stroke-linejoin="miter"
		stroke-linecap="square"
		d="M71.17,135.16C78.84,146.12,79.00,159.77,81.77,164.81C84.24,176.15,90.69,179.76,82.56,189.60C80.29,189.45,77.94,189.17,75.90,188.51C75.18,188.10,75.18,186.45,75.66,185.02C71.16,178.33,68.17,174.09,67.21,166.53C54.57,163.31,41.10,143.23,45.43,129.47C49.02,131.04,64.87,134.10,71.17,135.16z"/>
	<path
		fill="#2A0008"
		stroke="#2A2526"
		fill-opacity="1.000"
		stroke-opacity="1.000"
		fill-rule="nonzero"
		stroke-width="0.0"
		stroke-linejoin="miter"
		stroke-linecap="square"
		d="M101.40,152.45C100.05,154.48,104.71,158.42,100.19,162.93C96.66,166.23,91.11,167.06,86.50,167.00C83.84,167.05,78.33,165.88,75.23,164.36C72.12,162.67,69.88,160.60,69.01,158.37C67.91,154.50,70.01,149.48,66.55,148.87C70.17,148.56,68.07,153.57,69.18,157.45C70.04,159.68,72.28,161.75,75.39,163.44C78.50,164.96,84.00,166.13,86.66,166.08C91.27,166.14,96.82,165.31,100.35,162.01C103.88,158.86,99.67,153.69,101.40,152.45z"/>
	<path
		fill="#5C92FF"
		stroke="#5C92FF"
		fill-opacity="0.984"
		stroke-opacity="0.984"
		fill-rule="nonzero"
		stroke-width="0.0"
		stroke-linejoin="miter"
		stroke-linecap="square"
		d="M153.34,120.05C149.76,113.16,145.75,108.71,143.15,106.50C145.93,104.65,148.66,104.92,150.52,105.12C152.22,107.87,153.97,113.51,153.34,120.05z"/>
	<path
		fill="#0040C1"
		stroke="#8AD9FF"
		fill-opacity="0.996"
		stroke-opacity="1.000"
		fill-rule="nonzero"
		stroke-width="0.0"
		stroke-linejoin="miter"
		stroke-linecap="square"
		d="M153.34,120.04L151.97,117.56C152.56,113.22,151.75,108.65,149.75,105.04L150.80,105.12C153.55,110.12,153.72,116.85,153.34,120.04z"/>
	<path
		fill="#2A0008"
		stroke="#2A0008"
		fill-opacity="1.000"
		stroke-opacity="1.000"
		fill-rule="nonzero"
		stroke-width="0.0"
		stroke-linejoin="miter"
		stroke-linecap="square"
		d="M81.82,187.14C87.28,187.28,94.44,185.39,97.12,183.93C96.67,187.19,85.37,188.06,81.82,187.14z"/>
	<path
		fill="#2A0008"
		stroke="#2A0008"
		fill-opacity="1.000"
		stroke-opacity="1.000"
		fill-rule="nonzero"
		stroke-width="0.0"
		stroke-linejoin="miter"
		stroke-linecap="square"
		d="M112.12,170.63C125.39,168.70,132.89,166.92,137.68,162.41C132.36,166.24,118.70,168.04,112.04,169.25L112.12,170.63z"/>
	<path
		fill="#2A0008"
		stroke="#2A0008"
		fill-opacity="1.000"
		stroke-opacity="1.000"
		fill-rule="nonzero"
		stroke-width="0.23439333"
		stroke-linejoin="miter"
		stroke-linecap="square"
		d="M114.86,146.36C132.77,147.09,146.13,147.09,148.35,143.94C137.49,147.08,125.57,145.87,114.86,146.36z"/>
	<path
		fill="#FF8C19"
		stroke="#FF8C19"
		fill-opacity="1.000"
		stroke-opacity="1.000"
		fill-rule="nonzero"
		stroke-width="0.23439333"
		stroke-linejoin="miter"
		stroke-linecap="square"
		d="M76.13,108.49C69.98,95.21,67.66,88.63,68.66,77.35C67.97,77.33,61.40,77.17,58.64,76.21C54.57,89.67,50.76,102.98,45.73,125.92C53.62,128.17,62.74,129.59,71.19,131.22C71.28,128.41,71.19,127.28,70.48,125.22C76.67,128.86,86.76,132.06,95.19,133.30C85.79,130.38,77.68,125.50,73.17,120.27C70.67,117.51,69.91,116.19,69.87,115.67C72.18,114.14,74.53,110.70,76.13,108.49z"/>
	<path
		fill="#000000"
		stroke="#BF5F00"
		fill-opacity="0.000"
		stroke-opacity="1.000"
		fill-rule="nonzero"
		stroke-width="1.1719666"
		stroke-linejoin="miter"
		stroke-linecap="square"
		d="M87.87,87.36C89.14,88.58,96.96,94.38,98.07,99.73C80.64,100.41,77.00,108.84,73.94,112.57C69.40,118.15,65.99,118.21,63.99,119.83C62.32,103.99,61.51,91.26,65.49,85.04"/>
	<path
		fill="#6D3600"
		stroke="#696367"
		fill-opacity="1.000"
		stroke-opacity="1.000"
		fill-rule="nonzero"
		stroke-width="0.0"
		stroke-linejoin="miter"
		stroke-linecap="square"
		d="M63.51,120.95C65.30,119.22,68.14,118.64,70.53,116.74C71.28,117.57,72.06,118.94,73.35,120.22C72.06,121.19,68.08,122.01,63.51,120.95z"/>
	<path
		fill="#BD5D00"
		stroke="#BD5D00"
		fill-opacity="1.000"
		stroke-opacity="1.000"
		fill-rule="nonzero"
		stroke-width="0.23439333"
		stroke-linejoin="miter"
		stroke-linecap="square"
		d="M58.94,77.03Q61.66,79.11,65.82,79.56C69.07,79.83,75.84,76.87,92.89,83.72C98.35,86.25,124.53,94.07,135.67,87.39C124.53,95.44,98.12,87.23,92.89,84.71C77.40,79.02,73.98,79.70,66.24,80.08C62.42,79.63,59.54,77.91,58.94,77.03z"/>
	<path
		fill="#2A0008"
		stroke="#2A2526"
		fill-opacity="1.000"
		stroke-opacity="1.000"
		fill-rule="nonzero"
		stroke-width="0.0"
		stroke-linejoin="miter"
		stroke-linecap="square"
		d="M104.02,151.80C101.70,154.19,107.28,157.05,102.83,162.40C100.24,166.34,94.89,168.04,90.34,168.72C87.72,169.20,82.10,168.93,78.79,167.92C75.45,166.75,72.91,165.06,70.81,164.55C68.32,163.50,67.39,162.34,67.04,157.56C67.48,164.03,70.47,164.12,71.67,164.62C73.47,165.32,75.46,165.82,78.80,166.98C82.11,167.99,87.73,168.27,90.35,167.78C94.91,167.11,100.25,165.41,102.72,161.33C106.19,157.90,101.21,153.47,104.02,151.80z"/>
	<path
		fill="#5C92FF"
		stroke="#5C92FF"
		fill-opacity="0.984"
		stroke-opacity="0.984"
		fill-rule="nonzero"
		stroke-width="0.70318013"
		stroke-linejoin="miter"
		stroke-linecap="square"
		d="M81.86,190.79Q78.05,190.46,75.68,189.67C75.24,194.66,78.31,194.43,81.86,190.79z"/>
	<path
		fill="#5C92FF"
		stroke="#5C92FF"
		fill-opacity="0.984"
		stroke-opacity="0.984"
		fill-rule="nonzero"
		stroke-width="0.70318013"
		stroke-linejoin="miter"
		stroke-linecap="square"
		d="M88.97,190.74Q85.13,191.10,82.64,190.87C83.84,194.76,87.42,195.26,88.97,190.74z"/>
	<path
		fill="#5C92FF"
		stroke="#5C92FF"
		fill-opacity="0.984"
		stroke-opacity="0.984"
		fill-rule="nonzero"
		stroke-width="0.70318013"
		stroke-linejoin="miter"
		stroke-linecap="square"
		d="M95.67,189.66Q91.82,190.44,89.30,190.70C91.13,194.34,94.75,194.35,95.67,189.66z"/>
	<path
		fill="#5C92FF"
		stroke="#5C92FF"
		fill-opacity="1.000"
		stroke-opacity="0.984"
		fill-rule="nonzero"
		stroke-width="0.70318013"
		stroke-linejoin="miter"
		stroke-linecap="square"
		d="M118.77,187.74C118.77,190.83,123.35,191.23,123.37,187.64Q120.45,187.85,118.77,187.74z"/>
	<path
		fill="#5C92FF"
		stroke="#5C92FF"
		fill-opacity="1.000"
		stroke-opacity="0.984"
		fill-rule="nonzero"
		stroke-width="0.70318013"
		stroke-linejoin="miter"
		stroke-linecap="square"
		d="M123.98,187.59C124.31,190.24,128.31,191.69,127.43,187.18Q124.86,187.54,123.98,187.59z"/>
	<path
		fill="#5C92FF"
		stroke="#5C92FF"
		fill-opacity="1.000"
		stroke-opacity="0.984"
		fill-rule="nonzero"
		stroke-width="0.70318013"
		stroke-linejoin="miter"
		stroke-linecap="square"
		d="M127.74,187.13C128.59,189.99,133.42,190.86,131.13,186.56Q128.88,186.98,127.74,187.13z"/>
	<path
		fill="#5C92FF"
		stroke="#5C92FF"
		fill-opacity="1.000"
		stroke-opacity="0.984"
		fill-rule="nonzero"
		stroke-width="0.70318013"
		stroke-linejoin="miter"
		stroke-linecap="square"
		d="M132.35,186.25Q132.26,186.23,131.34,186.52C132.16,189.76,137.69,190.59,132.35,186.25z"/>
	<path
		fill="#FFFFFF"
		stroke="#FFFFFF"
		fill-opacity="1.000"
		stroke-opacity="0.984"
		fill-rule="nonzero"
		stroke-width="0.70318013"
		stroke-linejoin="miter"
		stroke-linecap="square"
		d="M76.23,191.87L78.92,192.54C78.30,193.63,76.14,193.33,76.23,191.87z"/>
	<path
		fill="#FFFFFF"
		stroke="#FFFFFF"
		fill-opacity="1.000"
		stroke-opacity="0.984"
		fill-rule="nonzero"
		stroke-width="0.70318013"
		stroke-linejoin="miter"
		stroke-linecap="square"
		d="M84.13,192.65L87.24,192.78C86.55,194.36,84.48,193.88,84.13,192.65z"/>
	<path
		fill="#FFFFFF"
		stroke="#FFFFFF"
		fill-opacity="1.000"
		stroke-opacity="0.984"
		fill-rule="nonzero"
		stroke-width="0.70318013"
		stroke-linejoin="miter"
		stroke-linecap="square"
		d="M94.19,191.98C93.94,193.33,91.76,193.45,91.13,192.39L94.19,191.98z"/>
	<path
		fill="#FFFFFF"
		stroke="#FFFFFF"
		fill-opacity="1.000"
		stroke-opacity="0.984"
		fill-rule="nonzero"
		stroke-width="0.70318013"
		stroke-linejoin="miter"
		stroke-linecap="square"
		d="M119.71,189.03L122.64,189.03C122.45,190.25,119.67,190.21,119.71,189.03z"/>
	<path
		fill="#FFFFFF"
		stroke="#FFFFFF"
		fill-opacity="1.000"
		stroke-opacity="0.984"
		fill-rule="nonzero"
		stroke-width="0.70318013"
		stroke-linejoin="miter"
		stroke-linecap="square"
		d="M125.60,189.45L127.20,189.13C127.30,189.99,125.89,190.20,125.60,189.45z"/>
	<path
		fill="#FFFFFF"
		stroke="#FFFFFF"
		fill-opacity="1.000"
		stroke-opacity="0.984"
		fill-rule="nonzero"
		stroke-width="0.70318013"
		stroke-linejoin="miter"
		stroke-linecap="square"
		d="M131.53,188.87C131.62,189.33,130.29,189.65,130.06,189.19L131.53,188.87z"/>
	<path
		fill="#FFFFFF"
		stroke="#FFFFFF"
		fill-opacity="1.000"
		stroke-opacity="0.984"
		fill-rule="nonzero"
		stroke-width="0.70318013"
		stroke-linejoin="miter"
		stroke-linecap="square"
		d="M133.78,188.91L134.34,188.51C134.81,188.95,134.25,189.38,133.78,188.91z"/>
	<path
		fill="#0040C1"
		stroke="#4B4B4B"
		fill-opacity="0.996"
		stroke-opacity="0.984"
		fill-rule="nonzero"
		stroke-width="0.0"
		stroke-linejoin="miter"
		stroke-linecap="square"
		d="M126.97,130.17C114.19,136.36,100.46,135.73,92.88,132.39C86.53,130.32,75.94,124.99,70.54,116.74C72.29,115.45,73.88,113.60,75.67,111.22C88.12,124.05,116.13,131.92,133.70,121.87C134.35,121.46,134.86,120.88,135.01,120.30Q135.11,121.73,132.83,123.38Q132.66,123.49,132.33,123.76C134.48,124.55,135.61,125.52,134.70,126.85C132.49,129.37,127.72,129.62,126.97,130.17z"/>
	<path
		fill="#FFFFFF"
		stroke="#0040C1"
		fill-opacity="1.000"
		stroke-opacity="0.996"
		fill-rule="nonzero"
		stroke-width="0.46878672"
		stroke-linejoin="miter"
		stroke-linecap="square"
		d="M133.46,127.35Q132.43,125.85,133.41,124.65C134.85,125.00,135.07,126.63,133.46,127.35z"/>
	<path
		fill="#0040C1"
		stroke="#0040C1"
		fill-opacity="0.996"
		stroke-opacity="0.996"
		fill-rule="nonzero"
		stroke-width="0.0"
		stroke-linejoin="miter"
		stroke-linecap="square"
		d="M68.79,76.37C65.19,65.62,66.19,32.13,88.17,21.05C72.20,24.20,59.19,49.46,58.00,75.25C61.62,76.92,67.15,76.30,68.79,76.37z"/>
</svg>