<?xml version="1.0" encoding="utf-8"?>
<svg
	version="1.1"
	xmlns="http://www.w3.org/2000/svg"
	xmlns:xlink="http://www.w3.org/1999/xlink"
	x="0px" y="0px"
	width="200.0px" height="200.0px"
	viewBox="0 0 200.0 200.0"
	enable-background="new 0 0 200.0 200.0"
	xml:space="preserve">
	<path
		fill="#007F66"
		stroke="#000000"
		fill-opacity="1.000"
		stroke-opacity="1.000"
		fill-rule="nonzero"
		stroke-width="0.0"
		stroke-linejoin="miter"
		stroke-linecap="square"
		d="M0.00,0.00L200.00,0.00L200.00,200.00L0.00,200.00z"/>
	<path
		fill="#FFFFFF"
		stroke="#171717"
		fill-opacity="1.000"
		stroke-opacity="1.000"
		fill-rule="nonzero"
		stroke-width="0.0"
		stroke-linejoin="miter"
		stroke-linecap="square"
		d="M101.81,109.08L87.32,114.36L85.34,109.57L100.69,104.41L101.81,109.08z"/>
	<path
		fill="#FFFFFF"
		stroke="#171717"
		fill-opacity="1.000"
		stroke-opacity="1.000"
		fill-rule="nonzero"
		stroke-width="0.0"
		stroke-linejoin="miter"
		stroke-linecap="square"
		d="M79.50,96.02L81.59,101.49L98.05,96.15L95.99,90.61L79.50,96.02z"/>
	<path
		fill="#00DDB2"
		stroke="#000000"
		fill-opacity="1.000"
		stroke-opacity="1.000"
		fill-rule="nonzero"
		stroke-width="0.0"
		stroke-linejoin="miter"
		stroke-linecap="square"
		d="M23.56,164.65C23.58,145.64,29.19,134.73,42.70,116.82C36.27,100.16,52.64,91.85,65.91,85.35C69.18,83.92,71.02,82.18,72.54,85.77L85.98,116.53C87.80,120.70,85.73,121.62,83.22,122.59C65.73,128.82,58.32,134.80,47.91,123.75C37.76,133.23,32.18,148.21,31.73,165.48C31.28,170.50,23.56,170.50,23.56,164.65z"/>
	<path
		fill="#00DDB2"
		stroke="#000000"
		fill-opacity="1.000"
		stroke-opacity="1.000"
		fill-rule="nonzero"
		stroke-width="0.0"
		stroke-linejoin="miter"
		stroke-linecap="square"
		d="M143.09,89.48C164.77,95.89,182.08,108.57,185.99,118.72C190.15,122.42,184.81,128.44,180.25,123.24C164.30,104.37,148.69,97.06,138.37,97.47C137.63,108.93,127.22,114.15,111.90,118.39C108.68,119.07,106.81,119.74,105.63,115.91L96.48,84.82C95.35,81.04,97.45,80.17,99.12,79.62C113.63,74.71,125.19,69.63,134.91,82.03Q139.59,88.55,143.09,89.48z"/>
	<path
		fill="#171717"
		stroke="#171717"
		fill-opacity="1.000"
		stroke-opacity="1.000"
		fill-rule="nonzero"
		stroke-width="0.5803454"
		stroke-linejoin="miter"
		stroke-linecap="square"
		d="M105.11,114.72C105.65,116.30,103.68,116.68,103.39,115.20L94.15,85.19C93.87,83.86,95.74,83.39,96.08,84.72L105.11,114.72z"/>
	<path
		fill="#171717"
		stroke="#171717"
		fill-opacity="1.000"
		stroke-opacity="1.000"
		fill-rule="nonzero"
		stroke-width="0.5803454"
		stroke-linejoin="miter"
		stroke-linecap="square"
		d="M87.14,114.14C87.85,115.65,85.94,116.25,85.48,114.81L72.93,86.03C72.50,84.74,74.31,84.06,74.79,85.35L87.14,114.14z"/>
	<path
		fill="#FFFFFF"
		stroke="#171717"
		fill-opacity="1.000"
		stroke-opacity="1.000"
		fill-rule="nonzero"
		stroke-width="0.0"
		stroke-linejoin="miter"
		stroke-linecap="square"
		d="M92.72,141.44C92.44,145.59,85.75,145.71,85.95,140.98L86.81,126.58C87.05,122.59,93.36,122.27,93.49,127.01L92.72,141.44z"/>
	<path
		fill="#FFFFFF"
		stroke="#171717"
		fill-opacity="1.000"
		stroke-opacity="1.000"
		fill-rule="nonzero"
		stroke-width="0.0"
		stroke-linejoin="miter"
		stroke-linecap="square"
		d="M106.81,127.79C109.39,130.55,106.59,135.41,102.59,132.34L95.73,125.85C92.76,122.53,96.58,118.47,99.97,121.50L106.81,127.79z"/>
	<path
		fill="#FFFFFF"
		stroke="#171717"
		fill-opacity="1.000"
		stroke-opacity="1.000"
		fill-rule="nonzero"
		stroke-width="0.0"
		stroke-linejoin="miter"
		stroke-linecap="square"
		d="M77.40,68.62C79.96,72.38,74.95,76.10,72.07,71.82L67.30,63.67C64.69,59.62,70.12,56.74,72.59,60.68L77.40,68.62z"/>
	<path
		fill="#FFFFFF"
		stroke="#171717"
		fill-opacity="1.000"
		stroke-opacity="1.000"
		fill-rule="nonzero"
		stroke-width="0.0"
		stroke-linejoin="miter"
		stroke-linecap="square"
		d="M89.31,68.27C89.03,72.41,82.34,72.53,82.54,67.80L83.40,53.41C83.64,49.42,89.95,49.09,90.08,53.83L89.31,68.27z"/>
</svg>