<?xml version="1.0" encoding="utf-8"?>
<svg
	version="1.1"
	xmlns="http://www.w3.org/2000/svg"
	xmlns:xlink="http://www.w3.org/1999/xlink"
	x="0px" y="0px"
	width="24.0px" height="24.0px"
	viewBox="0 0 24.0 24.0"
	enable-background="new 0 0 24.0 24.0"
	xml:space="preserve">
	<path
		fill="#002631"
		stroke="#002631"
		fill-opacity="1.000"
		stroke-opacity="1.000"
		fill-rule="nonzero"
		stroke-width="0.072"
		stroke-linejoin="miter"
		stroke-linecap="square"
		d="M19.23,9.68C18.81,8.14,18.49,7.19,17.63,5.84C15.52,5.19,11.92,5.32,10.21,5.58C9.94,7.39,9.65,9.02,9.62,10.20C9.19,10.24,9.08,10.44,9.12,10.56C9.58,10.83,10.00,10.93,10.82,11.75C11.28,12.22,11.41,12.40,11.77,12.94C13.09,11.55,14.97,10.66,16.46,10.20C17.21,9.96,18.74,9.63,19.23,9.68z"/>
	<path
		fill="#F1EFD7"
		stroke="#F1EFD7"
		fill-opacity="1.000"
		stroke-opacity="1.000"
		fill-rule="nonzero"
		stroke-width="0.024"
		stroke-linejoin="miter"
		stroke-linecap="square"
		d="M13.19,9.78C12.45,9.87,11.85,10.20,11.28,9.85C11.07,9.59,10.70,9.74,10.77,9.51C10.92,9.28,11.23,8.83,11.82,8.56C12.35,5.43,9.95,5.85,10.27,9.23C10.38,10.13,11.39,10.69,12.54,10.29C13.02,10.33,13.74,10.39,14.45,10.07C15.26,9.76,16.03,8.79,15.22,7.01C14.76,6.16,13.32,6.24,12.98,7.49C12.80,8.29,12.92,9.10,13.19,9.78z"/>
	<path
		fill="#000000"
		stroke="#020200"
		fill-opacity="0.992"
		stroke-opacity="1.000"
		fill-rule="nonzero"
		stroke-width="0.0"
		stroke-linejoin="miter"
		stroke-linecap="square"
		d="M10.86,8.49C10.82,8.56,10.66,8.72,10.57,8.33C10.48,7.87,11.10,7.90,10.86,8.49z"/>
	<path
		fill="#000000"
		stroke="#020200"
		fill-opacity="1.000"
		stroke-opacity="1.000"
		fill-rule="nonzero"
		stroke-width="0.024"
		stroke-linejoin="miter"
		stroke-linecap="square"
		d="M14.26,8.48C14.24,8.54,14.10,8.66,14.05,8.35C13.92,7.89,14.53,7.93,14.26,8.48z"/>
	<path
		fill="#F1AEAB"
		stroke="#020200"
		fill-opacity="1.000"
		stroke-opacity="1.000"
		fill-rule="nonzero"
		stroke-width="0.0"
		stroke-linejoin="miter"
		stroke-linecap="square"
		d="M10.41,8.97C10.45,8.63,11.08,8.68,10.87,9.01C10.69,9.22,10.41,9.07,10.41,8.97z"/>
	<path
		fill="#F1AEAB"
		stroke="#020200"
		fill-opacity="1.000"
		stroke-opacity="1.000"
		fill-rule="nonzero"
		stroke-width="0.0"
		stroke-linejoin="miter"
		stroke-linecap="square"
		d="M13.94,8.96C13.90,8.54,14.72,8.59,14.49,9.02C14.27,9.29,13.93,9.10,13.94,8.96z"/>
	<path
		fill="#FA8269"
		stroke="#FA8269"
		fill-opacity="1.000"
		stroke-opacity="1.000"
		fill-rule="nonzero"
		stroke-width="0.0"
		stroke-linejoin="miter"
		stroke-linecap="square"
		d="M13.04,9.36C12.99,9.18,12.95,8.98,12.92,8.84C12.62,8.54,12.53,8.44,12.40,8.44C12.07,8.43,11.34,8.64,10.79,9.49C10.76,9.54,11.11,9.59,11.19,9.57C12.15,8.38,12.38,8.51,13.04,9.36z"/>
	<path
		fill="#FE653F"
		stroke="#FE653F"
		fill-opacity="1.000"
		stroke-opacity="1.000"
		fill-rule="nonzero"
		stroke-width="0.024"
		stroke-linejoin="miter"
		stroke-linecap="square"
		d="M12.23,8.70C12.51,8.70,12.75,9.00,13.03,9.36C13.07,9.51,13.10,9.59,13.16,9.76C13.07,9.77,12.95,9.79,12.84,9.81C12.12,9.55,11.81,9.55,11.22,9.56C11.55,9.14,11.95,8.69,12.23,8.70z"/>
	<path
		fill="#FE4A05"
		stroke="#FE4A05"
		fill-opacity="1.000"
		stroke-opacity="1.000"
		fill-rule="nonzero"
		stroke-width="0.0"
		stroke-linejoin="miter"
		stroke-linecap="square"
		d="M10.79,9.49C10.70,9.66,10.88,9.63,11.09,9.70C11.21,9.74,11.24,9.93,11.74,10.00C11.93,10.02,12.41,9.95,12.84,9.83C12.19,9.58,11.90,9.55,11.19,9.57C11.09,9.58,10.77,9.55,10.79,9.49z"/>
	<path
		fill="#FCFEFD"
		stroke="#FCFEFD"
		fill-opacity="1.000"
		stroke-opacity="1.000"
		fill-rule="nonzero"
		stroke-width="0.024"
		stroke-linejoin="miter"
		stroke-linecap="square"
		d="M18.14,5.35C18.31,5.44,18.50,5.76,17.95,6.29C17.86,6.12,17.74,5.90,17.66,5.81C17.57,5.77,17.34,5.72,17.06,5.65C15.65,5.36,14.25,5.32,12.94,5.33C12.61,5.32,10.45,5.47,10.17,5.54L10.15,5.74C10.04,5.76,9.72,5.72,9.78,5.54C9.99,5.00,10.29,5.01,10.62,4.92C11.09,3.82,11.94,3.03,13.19,2.81C14.71,2.57,15.74,3.11,16.20,3.50C16.72,3.91,17.15,4.56,17.20,5.08C17.55,5.14,17.79,5.17,18.14,5.35z"/>
	<path
		fill="#CBD2D5"
		stroke="#CBD2D5"
		fill-opacity="1.000"
		stroke-opacity="1.000"
		fill-rule="nonzero"
		stroke-width="0.024"
		stroke-linejoin="miter"
		stroke-linecap="square"
		d="M13.58,2.78C12.58,2.85,11.69,3.72,11.40,4.90C11.46,3.92,12.28,3.17,12.36,3.09C12.57,2.99,12.97,2.82,13.58,2.78z"/>
	<path
		fill="#CBD2D5"
		stroke="#CBD2D5"
		fill-opacity="1.000"
		stroke-opacity="1.000"
		fill-rule="nonzero"
		stroke-width="0.024"
		stroke-linejoin="miter"
		stroke-linecap="square"
		d="M18.19,5.98C18.18,5.39,17.28,5.27,16.85,5.19C15.86,5.00,14.38,4.95,13.87,5.01C14.23,3.41,15.89,3.40,15.97,3.50Q15.91,3.59,15.93,3.70C15.56,3.67,14.65,3.78,14.14,4.79C15.03,4.84,16.04,4.87,17.15,5.09C17.66,5.17,18.35,5.31,18.29,5.67C18.29,5.76,18.23,5.94,18.19,5.98z"/>
	<path
		fill="#FBC100"
		stroke="#FBC100"
		fill-opacity="0.988"
		stroke-opacity="1.000"
		fill-rule="nonzero"
		stroke-width="0.024"
		stroke-linejoin="miter"
		stroke-linecap="square"
		d="M7.69,4.68Q7.74,4.33,8.21,4.29C8.44,4.21,8.65,4.13,9.07,4.15Q8.67,4.26,8.24,4.61C8.39,5.78,9.59,6.69,9.97,6.87C9.87,7.50,9.64,8.87,9.58,10.16C9.19,10.19,8.99,10.45,9.09,10.60C9.32,10.75,10.66,11.19,11.76,13.00C12.97,11.78,14.92,10.45,17.97,9.87C18.37,9.79,18.88,9.71,19.27,9.72C19.89,9.85,19.99,10.16,19.87,11.32C20.35,12.56,20.88,13.71,21.42,16.52C21.55,17.27,21.55,17.74,21.60,18.42C19.64,19.12,16.51,18.54,15.78,17.80C15.73,19.18,16.03,20.20,16.69,20.65C13.51,20.71,10.28,20.62,8.51,20.66L8.52,20.51C7.27,20.52,6.17,20.34,6.07,20.20C6.76,17.40,7.55,15.70,8.26,13.66C7.25,13.49,5.52,11.73,5.38,11.06C5.41,9.71,6.29,6.41,6.74,5.90C7.10,5.38,7.29,5.03,7.69,4.68z"/>
	<path
		fill="#FCE43A"
		stroke="#FCE43A"
		fill-opacity="1.000"
		stroke-opacity="1.000"
		fill-rule="nonzero"
		stroke-width="0.024"
		stroke-linejoin="miter"
		stroke-linecap="square"
		d="M15.17,19.81C10.74,19.77,8.57,19.80,6.60,19.91C7.17,17.76,7.77,16.05,8.20,14.46C9.91,14.34,12.84,14.41,15.26,14.40C15.05,16.67,15.20,18.79,15.17,19.81z"/>
	<path
		fill="#F78D01"
		stroke="#F78D01"
		fill-opacity="1.000"
		stroke-opacity="1.000"
		fill-rule="nonzero"
		stroke-width="0.024"
		stroke-linejoin="miter"
		stroke-linecap="square"
		d="M19.84,11.31C18.60,11.46,17.37,11.67,15.89,12.12C13.59,12.73,12.81,13.27,11.48,13.91C11.31,15.18,10.96,18.73,11.04,19.81C12.82,19.84,14.69,19.84,16.05,19.84Q16.11,19.98,16.18,20.10C13.96,20.01,12.38,20.02,11.05,20.07C11.04,20.25,11.02,20.45,11.03,20.64L10.90,20.64C10.90,20.47,10.89,20.16,10.90,20.08C9.33,20.13,8.29,20.11,7.05,20.02C8.17,20.18,8.58,20.24,8.52,20.49C7.32,20.45,6.39,20.39,6.09,20.20Q6.12,20.07,6.14,19.99C7.41,19.79,9.20,19.85,10.88,19.82C10.80,17.79,11.04,14.84,11.40,13.31Q11.51,13.10,11.62,12.98C11.43,12.67,11.24,12.34,10.46,11.49C11.18,12.13,11.44,12.56,11.75,13.03Q11.58,13.18,11.49,13.49C13.89,11.91,15.98,11.54,16.73,11.32C17.77,11.09,19.12,10.66,19.88,10.83Q19.85,11.21,19.84,11.31z"/>
	<path
		fill="#0F7BA5"
		stroke="#0F7BA5"
		fill-opacity="1.000"
		stroke-opacity="1.000"
		fill-rule="nonzero"
		stroke-width="0.0"
		stroke-linejoin="miter"
		stroke-linecap="square"
		d="M9.98,6.87C9.90,6.83,9.81,6.77,9.72,6.71Q9.87,6.66,10.03,6.57Q10.00,6.72,9.98,6.87z"/>
	<path
		fill="#002631"
		stroke="#002631"
		fill-opacity="0.992"
		stroke-opacity="1.000"
		fill-rule="nonzero"
		stroke-width="0.024"
		stroke-linejoin="miter"
		stroke-linecap="square"
		d="M15.80,17.84C16.68,18.59,18.94,18.88,20.48,18.70C20.57,20.24,18.86,21.36,17.82,20.63C16.53,21.25,15.69,19.87,15.80,17.84z"/>
	<path
		fill="#083845"
		stroke="#40FF01"
		fill-opacity="1.000"
		stroke-opacity="1.000"
		fill-rule="nonzero"
		stroke-width="0.0"
		stroke-linejoin="miter"
		stroke-linecap="square"
		d="M16.30,19.35C16.29,19.23,16.26,18.81,16.32,18.52C16.55,18.75,17.33,18.96,17.64,19.00C17.64,19.18,17.65,19.65,17.45,20.18C17.32,20.59,16.39,20.35,16.30,19.35z"/>
	<path
		fill="#083845"
		stroke="#40FF01"
		fill-opacity="1.000"
		stroke-opacity="1.000"
		fill-rule="nonzero"
		stroke-width="0.0"
		stroke-linejoin="miter"
		stroke-linecap="square"
		d="M17.91,20.12C17.90,19.60,17.86,19.07,17.96,19.04C18.04,18.98,19.15,19.13,20.18,18.98C20.15,19.56,19.82,19.94,19.29,20.23C18.83,20.50,17.81,20.82,17.91,20.12z"/>
	<path
		fill="#FB482A"
		stroke="#FB482A"
		fill-opacity="1.000"
		stroke-opacity="1.000"
		fill-rule="nonzero"
		stroke-width="0.024"
		stroke-linejoin="miter"
		stroke-linecap="square"
		d="M11.95,21.66C10.71,21.74,9.11,21.67,7.58,21.68C7.62,21.12,8.42,20.99,8.50,20.97L8.51,20.68C9.62,20.67,10.37,20.66,11.58,20.68C12.38,20.69,13.55,20.70,14.60,20.69C15.33,20.69,15.89,20.69,16.72,20.67C17.05,20.85,17.42,20.85,17.82,20.65C17.93,20.73,18.05,20.78,18.12,20.81C18.10,21.04,18.02,21.50,18.00,21.64L13.94,21.67C13.96,21.40,14.21,21.17,14.58,21.01C13.98,20.92,13.38,20.94,11.96,20.95L11.95,21.66z"/>
	<path
		fill="#FE6A3F"
		stroke="#FE6A3F"
		fill-opacity="1.000"
		stroke-opacity="1.000"
		fill-rule="nonzero"
		stroke-width="0.024"
		stroke-linejoin="miter"
		stroke-linecap="square"
		d="M10.42,21.36Q10.40,21.52,10.28,21.51L9.55,21.49C9.81,20.98,10.45,20.91,10.42,21.36z"/>
	<path
		fill="#FE6A3F"
		stroke="#FE6A3F"
		fill-opacity="1.000"
		stroke-opacity="1.000"
		fill-rule="nonzero"
		stroke-width="0.024"
		stroke-linejoin="miter"
		stroke-linecap="square"
		d="M9.49,21.32Q9.43,21.47,9.35,21.53L8.71,21.50C8.91,20.97,9.78,20.89,9.49,21.32z"/>
	<path
		fill="#FE6A3F"
		stroke="#FE6A3F"
		fill-opacity="1.000"
		stroke-opacity="1.000"
		fill-rule="nonzero"
		stroke-width="0.024"
		stroke-linejoin="miter"
		stroke-linecap="square"
		d="M15.17,21.42Q15.10,21.54,15.65,21.49L17.91,21.50C17.83,20.95,15.23,20.66,15.17,21.42z"/>
	<path
		fill="#FE6A3F"
		stroke="#FE6A3F"
		fill-opacity="1.000"
		stroke-opacity="1.000"
		fill-rule="nonzero"
		stroke-width="0.024"
		stroke-linejoin="miter"
		stroke-linecap="square"
		d="M15.03,21.36Q14.94,21.58,14.28,21.49L14.28,21.40C14.56,20.94,15.35,20.96,15.03,21.36z"/>
	<path
		fill="#FE6A3F"
		stroke="#FE6A3F"
		fill-opacity="1.000"
		stroke-opacity="1.000"
		fill-rule="nonzero"
		stroke-width="0.024"
		stroke-linejoin="miter"
		stroke-linecap="square"
		d="M7.80,21.48Q7.82,21.23,8.30,21.08L8.64,20.99C8.13,21.35,8.55,21.71,7.80,21.48z"/>
	<path
		fill="#F78D01"
		stroke="#F78D01"
		fill-opacity="1.000"
		stroke-opacity="1.000"
		fill-rule="nonzero"
		stroke-width="0.024"
		stroke-linejoin="miter"
		stroke-linecap="square"
		d="M7.72,5.32C7.82,6.39,8.84,7.37,9.84,7.72C9.86,7.59,9.94,7.10,9.97,6.87C9.66,6.70,9.20,6.37,8.77,5.80C8.51,5.50,8.28,4.94,8.24,4.62C8.44,4.45,8.79,4.24,9.09,4.13C8.57,4.13,8.32,4.26,8.22,4.28C7.84,4.80,8.43,5.78,8.74,6.13C9.18,6.70,9.60,6.97,9.84,7.09L9.76,7.58C9.40,7.59,7.86,6.52,7.72,5.32z"/>
	<path
		fill="#F78D01"
		stroke="#F78D01"
		fill-opacity="1.000"
		stroke-opacity="1.000"
		fill-rule="nonzero"
		stroke-width="0.024"
		stroke-linejoin="miter"
		stroke-linecap="square"
		d="M8.89,11.99C8.29,11.80,8.69,11.77,8.73,11.29C8.76,11.18,8.78,11.05,8.82,10.91C8.91,10.43,8.96,10.15,9.38,10.06C9.45,9.73,9.55,9.30,9.59,9.03C8.39,8.83,6.82,7.37,6.52,6.34Q6.60,6.11,6.78,5.90C6.78,6.92,8.10,8.44,9.69,8.84C9.67,9.06,9.61,9.60,9.58,10.16C9.17,10.21,9.01,10.44,9.09,10.59L8.77,11.71C9.58,12.05,10.54,12.45,11.36,13.34Q11.21,13.52,10.99,13.60C10.56,12.91,9.72,12.32,9.00,12.11C8.66,12.80,8.39,13.37,8.28,13.69C8.40,13.06,8.94,12.00,8.89,11.99z"/>
	<path
		fill="#FFE744"
		stroke="#FCE43A"
		fill-opacity="0.914"
		stroke-opacity="1.000"
		fill-rule="nonzero"
		stroke-width="0.0"
		stroke-linejoin="miter"
		stroke-linecap="square"
		d="M21.57,18.33C21.16,18.38,17.21,19.06,15.68,17.46C15.73,17.25,15.76,16.79,15.83,16.09C17.46,16.82,19.45,16.82,21.39,16.58C21.53,17.24,21.54,17.90,21.57,18.33z"/>
	<path
		fill="#EEAE00"
		stroke="#FECA00"
		fill-opacity="1.000"
		stroke-opacity="1.000"
		fill-rule="nonzero"
		stroke-width="0.0"
		stroke-linejoin="miter"
		stroke-linecap="square"
		d="M21.57,18.33C20.93,18.47,19.46,18.56,18.99,18.51C19.09,18.04,19.12,17.45,19.13,16.72C19.73,16.73,20.67,16.67,21.40,16.58C21.55,17.23,21.54,17.94,21.57,18.33z"/>
	<path
		fill="#F78D01"
		stroke="#F78D01"
		fill-opacity="1.000"
		stroke-opacity="1.000"
		fill-rule="nonzero"
		stroke-width="0.024"
		stroke-linejoin="miter"
		stroke-linecap="square"
		d="M19.69,18.50C20.17,16.61,19.97,14.12,19.64,11.36Q19.74,11.35,19.85,11.33C19.91,11.49,19.93,11.54,19.94,11.57C19.86,11.63,19.78,11.64,19.75,11.64C19.76,11.86,19.75,11.95,19.90,13.01C19.93,13.39,20.09,14.41,20.27,16.57C20.37,17.47,20.38,17.92,20.36,18.46C20.28,18.47,19.82,18.51,19.69,18.50z"/>
	<path
		fill="#F78D01"
		stroke="#F78D01"
		fill-opacity="1.000"
		stroke-opacity="1.000"
		fill-rule="nonzero"
		stroke-width="0.024"
		stroke-linejoin="miter"
		stroke-linecap="square"
		d="M15.78,17.83Q15.65,17.75,15.58,17.67C15.73,17.42,15.78,16.73,15.83,16.02C15.85,15.42,15.98,13.49,16.04,12.10Q16.02,12.11,15.95,12.13C15.81,14.55,15.73,16.39,15.19,17.32C15.15,18.74,15.19,19.17,15.19,19.82L16.04,19.83C15.81,19.22,15.74,18.58,15.78,17.83z"/>
	<path
		fill="#002631"
		stroke="#002631"
		fill-opacity="1.000"
		stroke-opacity="1.000"
		fill-rule="nonzero"
		stroke-width="0.024"
		stroke-linejoin="miter"
		stroke-linecap="square"
		d="M9.07,4.16C9.49,3.62,10.92,3.62,11.12,4.04C10.98,4.19,10.70,4.63,10.62,4.90C10.44,4.93,10.06,5.01,9.94,5.22C9.69,5.55,9.68,5.78,10.15,5.76C10.12,5.93,10.08,6.28,10.02,6.57Q9.85,6.66,9.72,6.70C9.19,6.31,8.45,5.64,8.26,4.62C8.55,4.41,8.78,4.26,9.07,4.16z"/>
	<path
		fill="#450032"
		stroke="#450032"
		fill-opacity="1.000"
		stroke-opacity="1.000"
		fill-rule="nonzero"
		stroke-width="0.025618946"
		stroke-linejoin="miter"
		stroke-linecap="square"
		d="M5.84,13.34C5.84,13.39,5.52,13.66,5.48,13.65C5.48,13.58,5.81,13.33,5.84,13.34z"/>
	<path
		fill="#450032"
		stroke="#450032"
		fill-opacity="1.000"
		stroke-opacity="1.000"
		fill-rule="nonzero"
		stroke-width="0.0"
		stroke-linejoin="miter"
		stroke-linecap="square"
		d="M6.61,14.45C6.61,14.52,6.12,15.06,6.05,15.06C6.06,14.98,6.55,14.45,6.61,14.45z"/>
	<path
		fill="#450032"
		stroke="#450032"
		fill-opacity="1.000"
		stroke-opacity="1.000"
		fill-rule="nonzero"
		stroke-width="0.0"
		stroke-linejoin="miter"
		stroke-linecap="square"
		d="M5.81,6.05C5.71,6.00,4.19,5.58,4.46,5.59C4.42,5.58,5.94,6.02,5.81,6.05z"/>
	<path
		fill="#450032"
		stroke="#450032"
		fill-opacity="1.000"
		stroke-opacity="1.000"
		fill-rule="nonzero"
		stroke-width="0.0"
		stroke-linejoin="miter"
		stroke-linecap="square"
		d="M5.47,5.21C5.50,5.23,4.67,4.92,4.79,4.90C4.77,4.92,5.51,5.16,5.47,5.21z"/>
	<path
		fill="#002631"
		stroke="#450032"
		fill-opacity="1.000"
		stroke-opacity="1.000"
		fill-rule="nonzero"
		stroke-width="0.0"
		stroke-linejoin="miter"
		stroke-linecap="square"
		d="M17.77,2.59C17.75,2.52,18.14,2.03,18.21,2.35C18.26,2.37,17.85,2.83,17.77,2.59z"/>
	<path
		fill="#002631"
		stroke="#450032"
		fill-opacity="1.000"
		stroke-opacity="1.000"
		fill-rule="nonzero"
		stroke-width="0.0"
		stroke-linejoin="miter"
		stroke-linecap="square"
		d="M18.70,4.09C18.92,3.98,19.59,3.53,19.45,3.94C19.43,3.96,18.51,4.38,18.70,4.09z"/>
	<path
		fill="#450032"
		stroke="#450032"
		fill-opacity="1.000"
		stroke-opacity="1.000"
		fill-rule="nonzero"
		stroke-width="0.0"
		stroke-linejoin="miter"
		stroke-linecap="square"
		d="M19.72,7.46C19.76,7.44,20.12,8.00,20.03,7.99C20.06,7.99,19.69,7.46,19.72,7.46z"/>
	<path
		fill="#450032"
		stroke="#450032"
		fill-opacity="1.000"
		stroke-opacity="1.000"
		fill-rule="nonzero"
		stroke-width="0.0"
		stroke-linejoin="miter"
		stroke-linecap="square"
		d="M19.62,6.16C19.66,6.10,20.54,6.58,20.37,6.64C20.41,6.63,19.58,6.17,19.62,6.16z"/>
	<path
		fill="#083845"
		stroke="#00F511"
		fill-opacity="1.000"
		stroke-opacity="1.000"
		fill-rule="nonzero"
		stroke-width="0.0"
		stroke-linejoin="miter"
		stroke-linecap="square"
		d="M8.51,4.94C9.29,3.86,10.52,3.64,11.03,4.10Q11.01,4.14,10.95,4.21C10.54,3.86,9.41,3.90,8.51,4.94z"/>
</svg>