<?xml version="1.0" encoding="utf-8"?>
<svg
	version="1.1"
	xmlns="http://www.w3.org/2000/svg"
	xmlns:xlink="http://www.w3.org/1999/xlink"
	x="0px" y="0px"
	width="200.0px" height="200.0px"
	viewBox="0 0 200.0 200.0"
	enable-background="new 0 0 200.0 200.0"
	xml:space="preserve">
	<path
		fill="#FFF4D5"
		stroke="#000000"
		fill-opacity="1.000"
		stroke-opacity="1.000"
		fill-rule="nonzero"
		stroke-width="0.0"
		stroke-linejoin="miter"
		stroke-linecap="square"
		d="M0.00,0.00L200.00,0.00L200.00,200.00L0.00,200.00z"/>
	<path
		fill="#002631"
		stroke="#002631"
		fill-opacity="1.000"
		stroke-opacity="1.000"
		fill-rule="nonzero"
		stroke-width="0.6"
		stroke-linejoin="miter"
		stroke-linecap="square"
		d="M160.22,80.65C156.78,67.86,154.10,59.88,146.90,48.67C129.36,43.28,99.33,44.34,85.11,46.47C82.85,61.59,80.44,75.15,80.18,84.99C76.59,85.33,75.68,87.04,76.02,88.02C79.81,90.27,83.33,91.05,90.14,97.94C94.03,101.84,95.12,103.32,98.06,107.82C109.12,96.29,124.74,88.85,137.20,85.04C143.42,83.00,156.18,80.28,160.22,80.65z"/>
	<path
		fill="#F1EFD7"
		stroke="#F1EFD7"
		fill-opacity="1.000"
		stroke-opacity="1.000"
		fill-rule="nonzero"
		stroke-width="0.2"
		stroke-linejoin="miter"
		stroke-linecap="square"
		d="M109.94,81.47C103.71,82.28,98.76,84.99,93.99,82.09C92.23,79.90,89.13,81.18,89.72,79.23C90.98,77.30,93.55,73.60,98.47,71.36C102.92,45.28,82.95,48.79,85.61,76.93C86.47,84.45,94.91,89.06,104.48,85.79C108.49,86.05,114.47,86.56,120.39,83.96C127.17,81.35,133.60,73.27,126.87,58.41C123.03,51.32,110.98,52.04,108.19,62.40C106.65,69.11,107.67,75.83,109.94,81.47z"/>
	<path
		fill="#000000"
		stroke="#020200"
		fill-opacity="0.992"
		stroke-opacity="1.000"
		fill-rule="nonzero"
		stroke-width="0.0"
		stroke-linejoin="miter"
		stroke-linecap="square"
		d="M90.47,70.72C90.19,71.34,88.86,72.70,88.06,69.45C87.36,65.58,92.53,65.87,90.47,70.72z"/>
	<path
		fill="#000000"
		stroke="#020200"
		fill-opacity="1.000"
		stroke-opacity="1.000"
		fill-rule="nonzero"
		stroke-width="0.2"
		stroke-linejoin="miter"
		stroke-linecap="square"
		d="M118.84,70.63C118.64,71.20,117.50,72.16,117.05,69.58C116.04,65.78,121.07,66.05,118.84,70.63z"/>
	<path
		fill="#F1AEAB"
		stroke="#020200"
		fill-opacity="1.000"
		stroke-opacity="1.000"
		fill-rule="nonzero"
		stroke-width="0.0"
		stroke-linejoin="miter"
		stroke-linecap="square"
		d="M86.75,74.71C87.10,71.88,92.37,72.35,90.59,75.09C89.12,76.82,86.72,75.60,86.75,74.71z"/>
	<path
		fill="#F1AEAB"
		stroke="#020200"
		fill-opacity="1.000"
		stroke-opacity="1.000"
		fill-rule="nonzero"
		stroke-width="0.0"
		stroke-linejoin="miter"
		stroke-linecap="square"
		d="M116.20,74.63C115.86,71.19,122.66,71.61,120.77,75.14C118.96,77.41,116.04,75.80,116.20,74.63z"/>
	<path
		fill="#FA8269"
		stroke="#FA8269"
		fill-opacity="1.000"
		stroke-opacity="1.000"
		fill-rule="nonzero"
		stroke-width="0.0"
		stroke-linejoin="miter"
		stroke-linecap="square"
		d="M108.63,77.97C108.21,76.52,107.89,74.83,107.70,73.66C105.17,71.14,104.41,70.36,103.32,70.34C100.58,70.27,94.52,72.04,89.90,79.06C89.70,79.54,92.60,79.92,93.27,79.77C101.22,69.81,103.20,70.88,108.63,77.97z"/>
	<path
		fill="#FE653F"
		stroke="#FE653F"
		fill-opacity="1.000"
		stroke-opacity="1.000"
		fill-rule="nonzero"
		stroke-width="0.2"
		stroke-linejoin="miter"
		stroke-linecap="square"
		d="M101.94,72.54C104.22,72.48,106.22,74.96,108.55,78.03C108.90,79.23,109.13,79.91,109.66,81.31C108.89,81.41,107.94,81.58,107.03,81.78C101.02,79.56,98.39,79.56,93.47,79.67C96.28,76.17,99.58,72.43,101.94,72.54z"/>
	<path
		fill="#FE4A05"
		stroke="#FE4A05"
		fill-opacity="1.000"
		stroke-opacity="1.000"
		fill-rule="nonzero"
		stroke-width="0.0"
		stroke-linejoin="miter"
		stroke-linecap="square"
		d="M89.90,79.06C89.17,80.46,90.63,80.26,92.38,80.86C93.42,81.14,93.68,82.72,97.84,83.31C99.39,83.50,103.43,82.90,107.03,81.88C101.58,79.87,99.18,79.56,93.26,79.77C92.40,79.85,89.75,79.55,89.90,79.06z"/>
	<path
		fill="#FCFEFD"
		stroke="#FCFEFD"
		fill-opacity="1.000"
		stroke-opacity="1.000"
		fill-rule="nonzero"
		stroke-width="0.2"
		stroke-linejoin="miter"
		stroke-linecap="square"
		d="M151.16,44.58C152.57,45.37,154.18,48.03,149.60,52.38C148.80,51.01,147.81,49.17,147.13,48.41C146.40,48.09,144.49,47.64,142.13,47.06C130.43,44.65,118.74,44.34,107.81,44.44C105.11,44.34,87.08,45.62,84.77,46.18L84.56,47.85C83.68,48.03,80.97,47.69,81.51,46.19C83.29,41.67,85.76,41.75,88.53,40.97C92.43,31.83,99.48,25.27,109.94,23.38C122.57,21.39,131.13,25.95,134.99,29.17C139.33,32.60,142.95,38.00,143.33,42.31C146.27,42.81,148.22,43.09,151.16,44.58z"/>
	<path
		fill="#CBD2D5"
		stroke="#CBD2D5"
		fill-opacity="1.000"
		stroke-opacity="1.000"
		fill-rule="nonzero"
		stroke-width="0.2"
		stroke-linejoin="miter"
		stroke-linecap="square"
		d="M113.18,23.20C104.83,23.76,97.43,30.99,95.04,40.86C95.49,32.64,102.31,26.45,102.99,25.73C104.75,24.94,108.07,23.48,113.18,23.20z"/>
	<path
		fill="#CBD2D5"
		stroke="#CBD2D5"
		fill-opacity="1.000"
		stroke-opacity="1.000"
		fill-rule="nonzero"
		stroke-width="0.2"
		stroke-linejoin="miter"
		stroke-linecap="square"
		d="M151.57,49.81C151.46,44.95,144.01,43.90,140.41,43.29C132.19,41.63,119.83,41.25,115.61,41.73C118.61,28.44,132.40,28.33,133.08,29.16Q132.55,29.88,132.77,30.87C129.63,30.59,122.10,31.51,117.80,39.94C125.25,40.34,133.63,40.57,142.95,42.44C147.18,43.09,152.88,44.26,152.43,47.22C152.39,48.00,151.90,49.47,151.57,49.81z"/>
	<path
		fill="#FBC100"
		stroke="#FBC100"
		fill-opacity="0.988"
		stroke-opacity="1.000"
		fill-rule="nonzero"
		stroke-width="0.2"
		stroke-linejoin="miter"
		stroke-linecap="square"
		d="M64.05,38.98Q64.53,36.05,68.40,35.74C70.30,35.05,72.12,34.46,75.55,34.59Q72.29,35.53,68.68,38.41C69.89,48.20,79.93,55.74,83.05,57.28C82.26,62.48,80.36,73.88,79.83,84.64C76.59,84.89,74.90,87.05,75.79,88.34C77.64,89.61,88.80,93.26,98.00,108.30C108.07,98.19,124.32,87.12,149.75,82.25C153.09,81.55,157.36,80.88,160.58,81.01C165.75,82.11,166.55,84.71,165.58,94.34C169.60,104.68,174.00,114.27,178.50,137.69C179.62,143.92,179.62,147.80,180.00,153.50C163.63,159.35,137.56,154.50,131.49,148.30C131.10,159.83,133.54,168.30,139.07,172.10C112.54,172.57,85.69,171.85,70.89,172.20L70.98,170.89C60.62,170.96,51.41,169.53,50.61,168.35C56.35,144.98,62.94,130.86,68.80,113.85C60.40,112.42,46.02,97.72,44.85,92.16C45.08,80.92,52.41,53.42,56.18,49.18C59.16,44.86,60.72,41.89,64.05,38.98z"/>
	<path
		fill="#FCE43A"
		stroke="#FCE43A"
		fill-opacity="1.000"
		stroke-opacity="1.000"
		fill-rule="nonzero"
		stroke-width="0.2"
		stroke-linejoin="miter"
		stroke-linecap="square"
		d="M126.38,165.10C89.51,164.77,71.42,164.99,55.02,165.93C59.74,147.98,64.72,133.74,68.30,120.51C82.60,119.47,106.99,120.10,127.20,120.00C125.38,138.91,126.63,156.61,126.38,165.10z"/>
	<path
		fill="#F78D01"
		stroke="#F78D01"
		fill-opacity="1.000"
		stroke-opacity="1.000"
		fill-rule="nonzero"
		stroke-width="0.2"
		stroke-linejoin="miter"
		stroke-linecap="square"
		d="M165.33,94.26C155.02,95.47,144.73,97.26,132.43,101.04C113.25,106.05,106.73,110.56,95.66,115.89C94.24,126.51,91.33,156.09,92.00,165.07C106.85,165.34,122.44,165.30,133.75,165.31Q134.23,166.51,134.82,167.52C116.31,166.79,103.13,166.82,92.07,167.22C91.97,168.76,91.83,170.40,91.88,172.01L90.83,172.00C90.84,170.61,90.79,168.01,90.86,167.31C77.71,167.74,69.07,167.55,58.73,166.82C68.08,168.16,71.53,168.68,71.01,170.73C61.04,170.41,53.21,169.90,50.76,168.35Q51.02,167.24,51.19,166.60C61.75,164.94,76.65,165.44,90.70,165.18C90.02,148.29,92.04,123.63,94.96,110.90Q95.90,109.18,96.83,108.18C95.22,105.55,93.65,102.84,87.18,95.73C93.18,101.11,95.35,104.69,97.95,108.59Q96.54,109.85,95.79,112.42C115.71,99.25,133.21,96.20,139.38,94.34C148.05,92.43,159.35,88.85,165.67,90.28Q165.40,93.42,165.33,94.26z"/>
	<path
		fill="#0F7BA5"
		stroke="#0F7BA5"
		fill-opacity="1.000"
		stroke-opacity="1.000"
		fill-rule="nonzero"
		stroke-width="0.0"
		stroke-linejoin="miter"
		stroke-linecap="square"
		d="M83.16,57.22C82.53,56.94,81.73,56.40,81.00,55.92Q82.29,55.54,83.58,54.79Q83.34,55.98,83.16,57.22z"/>
	<path
		fill="#002631"
		stroke="#002631"
		fill-opacity="0.992"
		stroke-opacity="1.000"
		fill-rule="nonzero"
		stroke-width="0.2"
		stroke-linejoin="miter"
		stroke-linecap="square"
		d="M131.68,148.69C139.02,154.95,157.81,157.34,170.67,155.83C171.38,168.64,157.17,178.02,148.52,171.90C137.71,177.11,130.76,165.55,131.68,148.69z"/>
	<path
		fill="#083845"
		stroke="#40FF01"
		fill-opacity="1.000"
		stroke-opacity="1.000"
		fill-rule="nonzero"
		stroke-width="0.0"
		stroke-linejoin="miter"
		stroke-linecap="square"
		d="M135.79,161.24C135.77,160.25,135.51,156.73,135.98,154.32C137.94,156.22,144.40,157.97,147.04,158.31C147.02,159.83,147.05,163.76,145.41,168.13C144.30,171.60,136.58,169.57,135.79,161.24z"/>
	<path
		fill="#083845"
		stroke="#40FF01"
		fill-opacity="1.000"
		stroke-opacity="1.000"
		fill-rule="nonzero"
		stroke-width="0.0"
		stroke-linejoin="miter"
		stroke-linecap="square"
		d="M149.24,167.69C149.16,163.30,148.82,158.89,149.69,158.65C150.35,158.18,159.62,159.45,168.16,158.17C167.91,163.00,165.20,166.20,160.77,168.61C156.94,170.84,148.44,173.48,149.24,167.69z"/>
	<path
		fill="#FB482A"
		stroke="#FB482A"
		fill-opacity="1.000"
		stroke-opacity="1.000"
		fill-rule="nonzero"
		stroke-width="0.2"
		stroke-linejoin="miter"
		stroke-linecap="square"
		d="M99.55,180.52C89.27,181.15,75.91,180.56,63.18,180.67C63.47,176.04,70.14,174.91,70.84,174.77L70.90,172.36C80.15,172.25,86.44,172.19,96.51,172.36C103.19,172.40,112.94,172.49,121.68,172.44C127.73,172.46,132.39,172.44,139.33,172.28C142.12,173.72,145.16,173.74,148.50,172.10C149.38,172.77,150.43,173.15,151.03,173.40C150.84,175.35,150.21,179.16,150.02,180.35L116.17,180.59C116.35,178.37,118.40,176.46,121.46,175.07C116.51,174.30,111.51,174.49,99.65,174.55L99.55,180.52z"/>
	<path
		fill="#FE6A3F"
		stroke="#FE6A3F"
		fill-opacity="1.000"
		stroke-opacity="1.000"
		fill-rule="nonzero"
		stroke-width="0.2"
		stroke-linejoin="miter"
		stroke-linecap="square"
		d="M86.85,178.04Q86.68,179.31,85.67,179.28L79.58,179.12C81.71,174.86,87.12,174.26,86.85,178.04z"/>
	<path
		fill="#FE6A3F"
		stroke="#FE6A3F"
		fill-opacity="1.000"
		stroke-opacity="1.000"
		fill-rule="nonzero"
		stroke-width="0.2"
		stroke-linejoin="miter"
		stroke-linecap="square"
		d="M79.07,177.68Q78.60,178.90,77.91,179.41L72.61,179.16C74.21,174.79,81.48,174.08,79.07,177.68z"/>
	<path
		fill="#FE6A3F"
		stroke="#FE6A3F"
		fill-opacity="1.000"
		stroke-opacity="1.000"
		fill-rule="nonzero"
		stroke-width="0.2"
		stroke-linejoin="miter"
		stroke-linecap="square"
		d="M126.41,178.52Q125.87,179.54,130.45,179.05L149.25,179.14C148.58,174.61,126.92,172.16,126.41,178.52z"/>
	<path
		fill="#FE6A3F"
		stroke="#FE6A3F"
		fill-opacity="1.000"
		stroke-opacity="1.000"
		fill-rule="nonzero"
		stroke-width="0.2"
		stroke-linejoin="miter"
		stroke-linecap="square"
		d="M125.28,178.01Q124.53,179.86,118.97,179.04L119.00,178.37C121.34,174.48,127.89,174.70,125.28,178.01z"/>
	<path
		fill="#FE6A3F"
		stroke="#FE6A3F"
		fill-opacity="1.000"
		stroke-opacity="1.000"
		fill-rule="nonzero"
		stroke-width="0.2"
		stroke-linejoin="miter"
		stroke-linecap="square"
		d="M65.03,179.03Q65.19,176.91,69.14,175.67L72.02,174.95C67.79,177.94,71.24,180.91,65.03,179.03z"/>
	<path
		fill="#F78D01"
		stroke="#F78D01"
		fill-opacity="1.000"
		stroke-opacity="1.000"
		fill-rule="nonzero"
		stroke-width="0.2"
		stroke-linejoin="miter"
		stroke-linecap="square"
		d="M64.33,44.33C65.16,53.24,73.64,61.43,81.98,64.33C82.14,63.24,82.85,59.18,83.05,57.28C80.48,55.85,76.68,53.06,73.04,48.33C70.95,45.86,69.01,41.16,68.63,38.47C70.29,37.08,73.25,35.31,75.75,34.45C71.45,34.39,69.29,35.46,68.49,35.70C65.32,40.01,70.21,48.20,72.85,51.06C76.51,55.84,80.03,58.10,82.04,59.07L81.32,63.20C78.32,63.28,65.52,54.37,64.33,44.33z"/>
	<path
		fill="#F78D01"
		stroke="#F78D01"
		fill-opacity="1.000"
		stroke-opacity="1.000"
		fill-rule="nonzero"
		stroke-width="0.2"
		stroke-linejoin="miter"
		stroke-linecap="square"
		d="M74.11,99.93C69.05,98.36,72.45,98.04,72.76,94.11C72.98,93.20,73.19,92.07,73.50,90.90C74.27,86.93,74.64,84.60,78.19,83.87C78.73,81.12,79.58,77.48,79.92,75.24C69.88,73.60,56.80,61.43,54.30,52.85Q55.01,50.95,56.48,49.16C56.52,57.63,67.48,70.36,80.75,73.63C80.55,75.53,80.11,80.01,79.83,84.64C76.38,85.11,75.07,87.01,75.75,88.24L73.11,97.57C79.83,100.41,87.85,103.79,94.66,111.14Q93.43,112.65,91.60,113.30C88.03,107.61,81.01,102.70,74.97,100.90C72.16,106.69,69.89,111.44,68.96,114.10C70.02,108.83,74.50,99.99,74.11,99.93z"/>
	<path
		fill="#FFE744"
		stroke="#FCE43A"
		fill-opacity="0.914"
		stroke-opacity="1.000"
		fill-rule="nonzero"
		stroke-width="0.0"
		stroke-linejoin="miter"
		stroke-linecap="square"
		d="M179.75,152.76C176.33,153.16,143.41,158.80,130.68,145.52C131.09,143.78,131.37,139.94,131.96,134.05C145.50,140.20,162.11,140.20,178.27,138.20C179.43,143.70,179.49,149.18,179.75,152.76z"/>
	<path
		fill="#EEAE00"
		stroke="#FECA00"
		fill-opacity="1.000"
		stroke-opacity="1.000"
		fill-rule="nonzero"
		stroke-width="0.0"
		stroke-linejoin="miter"
		stroke-linecap="square"
		d="M179.79,152.74C174.39,153.88,162.13,154.70,158.25,154.25C159.08,150.33,159.37,145.40,159.45,139.36C164.40,139.41,172.22,138.89,178.37,138.15C179.61,143.57,179.54,149.48,179.79,152.74z"/>
	<path
		fill="#F78D01"
		stroke="#F78D01"
		fill-opacity="1.000"
		stroke-opacity="1.000"
		fill-rule="nonzero"
		stroke-width="0.2"
		stroke-linejoin="miter"
		stroke-linecap="square"
		d="M164.11,154.16C168.08,138.40,166.40,117.69,163.71,94.65Q164.47,94.55,165.41,94.45C165.90,95.76,166.12,96.20,166.17,96.38C165.54,96.92,164.83,97.00,164.60,97.03C164.63,98.85,164.58,99.62,165.84,108.41C166.12,111.57,167.41,120.12,168.93,138.08C169.78,145.55,169.82,149.34,169.69,153.81C168.97,153.88,165.13,154.23,164.11,154.16z"/>
	<path
		fill="#F78D01"
		stroke="#F78D01"
		fill-opacity="1.000"
		stroke-opacity="1.000"
		fill-rule="nonzero"
		stroke-width="0.2"
		stroke-linejoin="miter"
		stroke-linecap="square"
		d="M131.49,148.54Q130.43,147.91,129.87,147.27C131.08,145.17,131.53,139.39,131.96,133.52C132.05,128.53,133.16,112.44,133.66,100.87Q133.52,100.92,132.93,101.12C131.75,121.23,131.11,136.62,126.54,144.37C126.26,156.15,126.62,159.71,126.57,165.20L133.71,165.24C131.75,160.18,131.21,154.81,131.49,148.54z"/>
	<path
		fill="#002631"
		stroke="#002631"
		fill-opacity="1.000"
		stroke-opacity="1.000"
		fill-rule="nonzero"
		stroke-width="0.2"
		stroke-linejoin="miter"
		stroke-linecap="square"
		d="M75.61,34.64C79.11,30.18,90.97,30.18,92.63,33.68C91.53,34.88,89.13,38.60,88.53,40.81C87.00,41.12,83.87,41.75,82.82,43.53C80.72,46.26,80.64,48.19,84.54,48.03C84.31,49.42,84.00,52.37,83.48,54.74Q82.11,55.47,81.04,55.81C76.56,52.62,70.41,46.99,68.80,38.50C71.22,36.72,73.14,35.52,75.61,34.64z"/>
	<path
		fill="#450032"
		stroke="#450032"
		fill-opacity="1.000"
		stroke-opacity="1.000"
		fill-rule="nonzero"
		stroke-width="0.21349122"
		stroke-linejoin="miter"
		stroke-linecap="square"
		d="M48.69,111.15C48.70,111.58,45.97,113.81,45.69,113.73C45.66,113.18,48.44,111.08,48.69,111.15z"/>
	<path
		fill="#450032"
		stroke="#450032"
		fill-opacity="1.000"
		stroke-opacity="1.000"
		fill-rule="nonzero"
		stroke-width="0.0"
		stroke-linejoin="miter"
		stroke-linecap="square"
		d="M55.05,120.41C55.10,121.02,50.96,125.52,50.43,125.51C50.52,124.85,54.59,120.38,55.05,120.41z"/>
	<path
		fill="#450032"
		stroke="#450032"
		fill-opacity="1.000"
		stroke-opacity="1.000"
		fill-rule="nonzero"
		stroke-width="0.0"
		stroke-linejoin="miter"
		stroke-linecap="square"
		d="M48.40,50.43C47.60,50.00,34.91,46.46,37.13,46.56C36.87,46.51,49.51,50.18,48.40,50.43z"/>
	<path
		fill="#450032"
		stroke="#450032"
		fill-opacity="1.000"
		stroke-opacity="1.000"
		fill-rule="nonzero"
		stroke-width="0.0"
		stroke-linejoin="miter"
		stroke-linecap="square"
		d="M45.55,43.43C45.85,43.57,38.89,41.01,39.93,40.80C39.76,40.99,45.95,43.03,45.55,43.43z"/>
	<path
		fill="#002631"
		stroke="#450032"
		fill-opacity="1.000"
		stroke-opacity="1.000"
		fill-rule="nonzero"
		stroke-width="0.0"
		stroke-linejoin="miter"
		stroke-linecap="square"
		d="M148.10,21.55C147.89,21.01,151.13,16.93,151.78,19.56C152.18,19.72,148.75,23.61,148.10,21.55z"/>
	<path
		fill="#002631"
		stroke="#450032"
		fill-opacity="1.000"
		stroke-opacity="1.000"
		fill-rule="nonzero"
		stroke-width="0.0"
		stroke-linejoin="miter"
		stroke-linecap="square"
		d="M155.81,34.11C157.67,33.16,163.25,29.39,162.09,32.85C161.92,32.97,154.24,36.50,155.81,34.11z"/>
	<path
		fill="#450032"
		stroke="#450032"
		fill-opacity="1.000"
		stroke-opacity="1.000"
		fill-rule="nonzero"
		stroke-width="0.0"
		stroke-linejoin="miter"
		stroke-linecap="square"
		d="M164.29,62.21C164.64,62.00,167.65,66.63,166.90,66.55C167.20,66.57,164.12,62.19,164.29,62.21z"/>
	<path
		fill="#450032"
		stroke="#450032"
		fill-opacity="1.000"
		stroke-opacity="1.000"
		fill-rule="nonzero"
		stroke-width="0.0"
		stroke-linejoin="miter"
		stroke-linecap="square"
		d="M163.48,51.30C163.85,50.83,171.18,54.80,169.72,55.30C170.12,55.23,163.14,51.43,163.48,51.30z"/>
	<path
		fill="#083845"
		stroke="#00F511"
		fill-opacity="1.000"
		stroke-opacity="1.000"
		fill-rule="nonzero"
		stroke-width="0.0"
		stroke-linejoin="miter"
		stroke-linecap="square"
		d="M70.94,41.16C77.42,32.20,87.63,30.29,91.96,34.19Q91.71,34.49,91.28,35.10C87.84,32.21,78.44,32.49,70.94,41.16z"/>
</svg>