<?xml version="1.0" encoding="utf-8"?>
<svg
	version="1.1"
	xmlns="http://www.w3.org/2000/svg"
	xmlns:xlink="http://www.w3.org/1999/xlink"
	x="0px" y="0px"
	width="200.0px" height="200.0px"
	viewBox="0 0 200.0 200.0"
	enable-background="new 0 0 200.0 200.0"
	xml:space="preserve">
	<path
		fill="#FFE5C1"
		stroke="#000000"
		fill-opacity="1.000"
		stroke-opacity="1.000"
		fill-rule="nonzero"
		stroke-width="0.0"
		stroke-linejoin="miter"
		stroke-linecap="square"
		d="M0.00,0.00L200.00,0.00L200.00,200.00L0.00,200.00z"/>
	<path
		fill="#FFFFFF"
		stroke="#F08900"
		fill-opacity="0.000"
		stroke-opacity="1.000"
		fill-rule="nonzero"
		stroke-width="9.948368"
		stroke-linejoin="miter"
		stroke-linecap="square"
		d="M122.53,117.38C131.79,118.48,135.91,118.03,136.20,107.75L137.18,51.17C137.11,43.31,137.84,34.93,126.99,34.12L73.73,33.65L33.75,33.65C25.68,33.65,19.30,36.46,19.30,46.34L19.01,111.14C19.01,114.63,20.82,120.36,28.77,118.60L37.76,116.66C43.45,115.53,43.57,120.31,43.45,124.26L43.02,147.98C42.45,156.55,45.45,161.12,52.88,153.67L76.89,126.13C82.16,119.62,85.12,114.90,94.48,115.70L122.53,117.38z"/>
	<path
		fill="#FFFFFF"
		stroke="#F08900"
		fill-opacity="0.000"
		stroke-opacity="1.000"
		fill-rule="nonzero"
		stroke-width="9.948368"
		stroke-linejoin="miter"
		stroke-linecap="square"
		d="M160.42,57.42L173.59,57.42C178.89,57.98,180.37,61.34,180.37,66.12L180.51,132.59C180.55,142.92,179.50,146.34,171.89,143.41L165.94,140.42C162.64,138.72,158.27,136.46,158.27,143.74L157.97,176.73C157.97,183.93,152.61,182.15,149.96,179.71L116.65,143.18"/>
</svg>