<?xml version="1.0" encoding="utf-8"?>
<svg
	version="1.1"
	xmlns="http://www.w3.org/2000/svg"
	xmlns:xlink="http://www.w3.org/1999/xlink"
	x="0px" y="0px"
	width="24.0px" height="24.0px"
	viewBox="0 0 24.0 24.0"
	enable-background="new 0 0 24.0 24.0"
	xml:space="preserve">
	<path
		fill="#000038"
		stroke="#000038"
		fill-opacity="1.000"
		stroke-opacity="1.000"
		fill-rule="nonzero"
		stroke-width="0.24"
		stroke-linejoin="miter"
		stroke-linecap="square"
		d="M24.11,24.35L23.99,20.79C19.16,14.33,14.41,13.98,12.51,16.15C11.47,17.20,10.37,15.61,12.51,13.58C14.06,12.02,15.30,10.71,15.30,8.79C15.30,7.51,14.80,6.79,14.62,6.62C14.36,7.03,14.19,7.24,13.67,7.31C14.76,8.97,13.83,10.42,11.67,12.68C9.27,15.34,9.63,17.95,11.67,19.82C13.62,21.53,15.63,21.91,20.15,23.01C21.21,23.25,22.53,23.60,24.11,24.35z"/>
	<path
		fill="#F9D7CD"
		stroke="#F9D7CD"
		fill-opacity="1.000"
		stroke-opacity="1.000"
		fill-rule="nonzero"
		stroke-width="0.048"
		stroke-linejoin="miter"
		stroke-linecap="square"
		d="M12.39,6.86C11.81,6.30,11.81,5.69,12.56,4.72C11.42,5.12,10.86,5.56,10.51,6.45L11.53,7.64Q11.82,7.11,12.39,6.86z"/>
	<path
		fill="#000038"
		stroke="#000038"
		fill-opacity="1.000"
		stroke-opacity="1.000"
		fill-rule="nonzero"
		stroke-width="0.048"
		stroke-linejoin="miter"
		stroke-linecap="square"
		d="M10.50,6.47L11.51,7.66C11.30,8.02,11.26,8.40,11.32,9.12C10.62,8.43,10.26,7.26,10.50,6.47z"/>
	<path
		fill="#000038"
		stroke="#000038"
		fill-opacity="1.000"
		stroke-opacity="1.000"
		fill-rule="nonzero"
		stroke-width="0.048"
		stroke-linejoin="miter"
		stroke-linecap="square"
		d="M16.58,24.25L16.59,22.98C16.82,22.89,17.03,22.53,17.02,22.27L15.41,21.83L15.40,22.37C15.40,22.74,15.70,22.95,15.78,23.00L15.78,24.24L16.58,24.25z"/>
	<path
		fill="#0ABBFE"
		stroke="#FF006A"
		fill-opacity="1.000"
		stroke-opacity="1.000"
		fill-rule="nonzero"
		stroke-width="0.0"
		stroke-linejoin="miter"
		stroke-linecap="square"
		d="M18.17,19.61C16.79,19.66,14.99,18.30,14.69,17.11C14.45,16.18,15.43,16.04,15.66,16.59C16.12,17.49,16.79,18.51,18.17,19.61z"/>
	<path
		fill="#98E6F7"
		stroke="#FF006A"
		fill-opacity="1.000"
		stroke-opacity="1.000"
		fill-rule="nonzero"
		stroke-width="0.0"
		stroke-linejoin="miter"
		stroke-linecap="square"
		d="M17.80,22.33C17.59,22.19,17.14,21.88,16.86,21.61C15.87,20.67,15.40,19.66,14.45,18.79Q12.06,16.81,12.46,18.64C12.94,19.92,14.20,21.08,15.58,21.70C16.33,22.03,17.43,22.24,17.80,22.33z"/>
	<path
		fill="#158DDB"
		stroke="#158DDB"
		fill-opacity="1.000"
		stroke-opacity="1.000"
		fill-rule="nonzero"
		stroke-width="0.048"
		stroke-linejoin="miter"
		stroke-linecap="square"
		d="M24.08,24.13L23.99,20.62C21.59,17.30,18.80,15.44,16.60,14.99C16.94,17.75,18.76,18.71,19.41,19.10L22.86,23.69Q23.41,23.83,24.08,24.13z"/>
	<path
		fill="#00177F"
		stroke="#000038"
		fill-opacity="0.435"
		stroke-opacity="1.000"
		fill-rule="nonzero"
		stroke-width="0.12"
		stroke-linejoin="miter"
		stroke-linecap="square"
		d="M22.51,20.18L24.04,22.93"/>
	<path
		fill="#000038"
		stroke="#000038"
		fill-opacity="1.000"
		stroke-opacity="1.000"
		fill-rule="nonzero"
		stroke-width="0.048187338"
		stroke-linejoin="miter"
		stroke-linecap="square"
		d="M22.48,20.09C22.50,20.09,22.52,20.11,22.52,20.13C22.52,20.15,22.50,20.16,22.48,20.16C22.46,20.16,22.44,20.15,22.44,20.13C22.44,20.11,22.46,20.09,22.48,20.09z"/>
	<path
		fill="#00177F"
		stroke="#000038"
		fill-opacity="0.435"
		stroke-opacity="1.000"
		fill-rule="nonzero"
		stroke-width="0.12"
		stroke-linejoin="miter"
		stroke-linecap="square"
		d="M19.39,16.91L23.78,23.99"/>
	<path
		fill="#000038"
		stroke="#000038"
		fill-opacity="1.000"
		stroke-opacity="1.000"
		fill-rule="nonzero"
		stroke-width="0.048187338"
		stroke-linejoin="miter"
		stroke-linecap="square"
		d="M19.36,16.82C19.38,16.82,19.40,16.84,19.40,16.86C19.40,16.88,19.38,16.89,19.36,16.89C19.34,16.89,19.33,16.88,19.33,16.86C19.33,16.84,19.34,16.82,19.36,16.82z"/>
	<path
		fill="#043178"
		stroke="#043178"
		fill-opacity="1.000"
		stroke-opacity="1.000"
		fill-rule="nonzero"
		stroke-width="0.0"
		stroke-linejoin="miter"
		stroke-linecap="square"
		d="M22.85,23.73Q23.15,23.75,23.78,24.10L21.07,19.71Q20.36,19.61,19.38,19.11L22.85,23.73z"/>
	<path
		fill="#0ABBFE"
		stroke="#0093FF"
		fill-opacity="1.000"
		stroke-opacity="1.000"
		fill-rule="nonzero"
		stroke-width="0.0"
		stroke-linejoin="miter"
		stroke-linecap="square"
		d="M17.80,22.33L16.47,21.98C15.02,20.86,13.91,19.65,13.45,18.04C14.58,18.79,15.08,19.44,15.96,20.58C16.44,21.23,17.02,21.88,17.80,22.33z"/>
	<path
		fill="#000038"
		stroke="#000038"
		fill-opacity="1.000"
		stroke-opacity="1.000"
		fill-rule="nonzero"
		stroke-width="0.144"
		stroke-linejoin="miter"
		stroke-linecap="square"
		d="M10.80,6.80L12.19,5.37"/>
	<path
		fill="#0A6FC9"
		stroke="#0A6FC9"
		fill-opacity="1.000"
		stroke-opacity="1.000"
		fill-rule="nonzero"
		stroke-width="0.28124198"
		stroke-linejoin="miter"
		stroke-linecap="square"
		d="M13.34,4.60C14.06,4.60,14.66,5.19,14.66,5.92C14.66,6.65,14.06,7.24,13.34,7.24C12.61,7.24,12.02,6.65,12.02,5.92C12.02,5.19,12.61,4.60,13.34,4.60z"/>
	<path
		fill="#000038"
		stroke="#000038"
		fill-opacity="1.000"
		stroke-opacity="1.000"
		fill-rule="nonzero"
		stroke-width="0.144"
		stroke-linejoin="miter"
		stroke-linecap="square"
		d="M12.88,5.37C13.06,5.37,13.20,5.52,13.20,5.69C13.20,5.87,13.06,6.01,12.88,6.01C12.71,6.01,12.56,5.87,12.56,5.69C12.56,5.52,12.71,5.37,12.88,5.37z"/>
</svg>